<?xml version="1.0" standalone="no"?>
<!DOCTYPE svg PUBLIC "-//W3C//DTD SVG 1.1//EN" "http://www.w3.org/Graphics/SVG/1.1/DTD/svg11.dtd" >
<svg xmlns="http://www.w3.org/2000/svg">
<metadata>Generated by IcoMoon</metadata>
<defs>
<font id="FICO-Icons" horiz-adv-x="1024">
<font-face units-per-em="1024" ascent="960" descent="-64" />
<missing-glyph horiz-adv-x="1024" />
<glyph unicode="&#x20;" horiz-adv-x="512" d="" />
<glyph unicode="&#xe900;" glyph-name="2-column" d="M144-64h736c44.8 0 80 35.2 80 80v624c0 12.8-3.2 38.4-41.6 89.6v0c-22.4 32-54.4 67.2-86.4 102.4-35.2 35.2-70.4 64-99.2 86.4-54.4 38.4-80 41.6-92.8 41.6h-496c-44.8 0-80-35.2-80-80v-864c0-44.8 35.2-80 80-80zM704 857.6c22.4-19.2 51.2-41.6 80-73.6v0c32-32 54.4-57.6 73.6-80h-153.6v153.6zM128 880c0 9.6 6.4 16 16 16h496v-224c0-19.2 12.8-32 32-32h224v-624c0-9.6-6.4-16-16-16h-736c-9.6 0-16 6.4-16 16v864zM268.8 160h195.2c6.4 0 12.8 12.8 12.8 32s-6.4 32-12.8 32h-195.2c-6.4 0-12.8-12.8-12.8-32s6.4-32 12.8-32zM268.8 288h195.2c6.4 0 12.8 12.8 12.8 32s-6.4 32-12.8 32h-195.2c-6.4 0-12.8-12.8-12.8-32s6.4-32 12.8-32zM268.8 416h195.2c6.4 0 12.8 12.8 12.8 32s-6.4 32-12.8 32h-195.2c-6.4 0-12.8-12.8-12.8-32s6.4-32 12.8-32zM588.8 160h195.2c6.4 0 12.8 12.8 12.8 32s-6.4 32-12.8 32h-195.2c-6.4 0-12.8-12.8-12.8-32s6.4-32 12.8-32zM588.8 288h195.2c6.4 0 12.8 12.8 12.8 32s-6.4 32-12.8 32h-195.2c-6.4 0-12.8-12.8-12.8-32s6.4-32 12.8-32zM588.8 416h195.2c6.4 0 12.8 12.8 12.8 32s-6.4 32-12.8 32h-195.2c-6.4 0-12.8-12.8-12.8-32s6.4-32 12.8-32z" />
<glyph unicode="&#xe901;" glyph-name="3-column" d="M918.4 729.6c-22.4 32-54.4 67.2-86.4 102.4-35.2 35.2-70.4 64-99.2 86.4-54.4 38.4-80 41.6-92.8 41.6h-496c-44.8 0-80-35.2-80-80v-864c0-44.8 35.2-80 80-80h736c44.8 0 80 35.2 80 80v624c0 12.8-3.2 38.4-41.6 89.6v0zM704 857.6c22.4-19.2 51.2-41.6 80-73.6v0c32-32 54.4-57.6 73.6-80h-153.6v153.6zM896 16c0-9.6-6.4-16-16-16h-736c-9.6 0-16 6.4-16 16v864c0 9.6 6.4 16 16 16h496v-224c0-19.2 12.8-32 32-32h224v-624zM387.2 224h-121.6c-6.4 0-9.6-12.8-9.6-32s3.2-32 9.6-32h124.8c6.4 0 9.6 12.8 9.6 32-3.2 19.2-6.4 32-12.8 32zM387.2 352h-121.6c-6.4 0-9.6-12.8-9.6-32s3.2-32 9.6-32h124.8c6.4 0 9.6 12.8 9.6 32s-6.4 32-12.8 32zM387.2 480h-121.6c-6.4 0-9.6-12.8-9.6-32s3.2-32 9.6-32h124.8c6.4 0 9.6 12.8 9.6 32-3.2 19.2-6.4 32-12.8 32zM579.2 224h-124.8c-6.4 0-9.6-12.8-9.6-32s3.2-32 9.6-32h124.8c6.4 0 9.6 12.8 9.6 32s-3.2 32-9.6 32zM579.2 352h-124.8c-6.4 0-9.6-12.8-9.6-32s3.2-32 9.6-32h124.8c6.4 0 9.6 12.8 9.6 32s-3.2 32-9.6 32zM579.2 480h-124.8c-6.4 0-9.6-12.8-9.6-32s3.2-32 9.6-32h124.8c6.4 0 9.6 12.8 9.6 32s-3.2 32-9.6 32zM771.2 224h-124.8c-6.4 0-9.6-12.8-9.6-32s3.2-32 9.6-32h124.8c6.4 0 9.6 12.8 9.6 32s-3.2 32-9.6 32zM771.2 352h-124.8c-6.4 0-9.6-12.8-9.6-32s3.2-32 9.6-32h124.8c6.4 0 9.6 12.8 9.6 32s-3.2 32-9.6 32zM640 448c0-19.2 3.2-32 9.6-32h124.8c6.4 0 9.6 12.8 9.6 32s-3.2 32-9.6 32h-124.8c-6.4 0-9.6-12.8-9.6-32z" />
<glyph unicode="&#xe902;" glyph-name="folder-tree" d="M512 512h448c35.2 0 64 28.8 64 64v256c0 35.2-28.8 64-64 64h-224l-64 64h-160c-35.2 0-64-28.8-64-64v-144h-352v176c0 19.2-12.8 32-32 32h-32c-19.2 0-32-12.8-32-32v-784c0-35.2 28.8-64 64-64h384v-80c0-35.2 28.8-64 64-64h448c35.2 0 64 28.8 64 64v256c0 35.2-28.8 64-64 64h-224l-64 64h-160c-35.2 0-64-28.8-64-64v-144h-352v480h352v-80c0-35.2 28.8-64 64-64zM544 864h89.6l64-64h230.4v-192h-384v256zM544 288h89.6l64-64h230.4v-192h-384v256z" />
<glyph unicode="&#xe903;" glyph-name="modeler-scorecard-solid" d="M64 854.4v-809.6c0-60.8 51.2-108.8 112-108.8h672c60.8 0 112 48 112 105.6v812.8c0 57.6-51.2 105.6-112 105.6h-672c-60.8 0-112-48-112-105.6zM768 640h-128v128h128v-128zM576 640h-320v128h320v-128zM768 384h-128v128h128v-128zM576 384h-320v128h320v-128zM768 128h-128v128h128v-128zM576 128h-320v128h320v-128z" />
<glyph unicode="&#xe904;" glyph-name="adjust" d="M512 835.2c214.4 0 387.2-172.8 387.2-387.2s-172.8-387.2-387.2-387.2c-214.4 0-387.2 172.8-387.2 387.2s172.8 387.2 387.2 387.2zM512 928c-265.6 0-480-214.4-480-480s214.4-480 480-480c265.6 0 480 214.4 480 480s-214.4 480-480 480zM512 742.4c-163.2 0-294.4-131.2-294.4-294.4s131.2-294.4 294.4-294.4v588.8z" />
<glyph unicode="&#xe905;" glyph-name="adjust-horiz" d="M124.8 448c0 214.4 172.8 387.2 387.2 387.2s387.2-172.8 387.2-387.2c0-214.4-172.8-387.2-387.2-387.2s-387.2 172.8-387.2 387.2zM32 448c0-265.6 214.4-480 480-480s480 214.4 480 480c0 265.6-214.4 480-480 480s-480-214.4-480-480zM217.6 448c0-163.2 131.2-294.4 294.4-294.4s294.4 131.2 294.4 294.4h-588.8z" />
<glyph unicode="&#xe906;" glyph-name="alarm" d="M512 832c-246.4 0-448-201.6-448-448s201.6-448 448-448 448 201.6 448 448-201.6 448-448 448zM512 25.6c-198.4 0-358.4 160-358.4 358.4s160 358.4 358.4 358.4 358.4-160 358.4-358.4-160-358.4-358.4-358.4zM934.4 672c16 28.8 25.6 60.8 25.6 96 0 105.6-86.4 192-192 192-60.8 0-115.2-28.8-150.4-73.6 131.2-28.8 243.2-105.6 316.8-214.4v0zM406.4 886.4c-32 44.8-89.6 73.6-150.4 73.6-105.6 0-192-86.4-192-192 0-35.2 9.6-67.2 25.6-96 73.6 108.8 185.6 185.6 316.8 214.4zM448 640h64v-320h-64v320zM512 384h192v-64h-192v64z" />
<glyph unicode="&#xe907;" glyph-name="archive" d="M0 736c0-19.2 16-32 32-32h960c16 0 32 12.8 32 32v96c0 35.2-28.8 64-64 64h-896c-35.2 0-64-28.8-64-64v-96zM960 640h-896v-576c0-35.2 28.8-64 64-64h768c35.2 0 64 28.8 64 64v576zM640 473.6c0-12.8-9.6-25.6-25.6-25.6h-208c-12.8 0-25.6 9.6-25.6 25.6v16c0 12.8 9.6 25.6 25.6 25.6h208c12.8 0 25.6-9.6 25.6-25.6v-16z" />
<glyph unicode="&#xe908;" glyph-name="arrow-fat-down" d="M704 416v512h-384v-512h-288l480-480 480 480z" />
<glyph unicode="&#xe909;" glyph-name="asterisk" d="M860.8 563.2c3.2 16 3.2 32-6.4 48l-32 54.4c-9.6 16-22.4 25.6-38.4 28.8s-32 3.2-48-6.4l-128-73.6v153.6c0 16-6.4 32-19.2 44.8s-28.8 19.2-44.8 19.2h-64c-16 0-32-6.4-44.8-19.2s-19.2-28.8-19.2-44.8v-153.6l-131.2 76.8c-12.8 9.6-28.8 9.6-48 6.4-16-6.4-28.8-16-38.4-28.8l-32-54.4c-9.6-16-9.6-32-6.4-48s12.8-28.8 28.8-38.4l131.2-76.8-128-80c-16-9.6-25.6-22.4-28.8-38.4s-3.2-32 6.4-48l32-54.4c9.6-16 22.4-25.6 38.4-28.8s32-3.2 48 6.4l131.2 76.8v-156.8c0-16 6.4-32 19.2-44.8 9.6-12.8 25.6-19.2 41.6-19.2h64c16 0 32 6.4 44.8 19.2s19.2 28.8 19.2 44.8v153.6l131.2-76.8c16-9.6 32-9.6 48-6.4s28.8 16 38.4 28.8l32 54.4c9.6 16 9.6 32 6.4 48s-12.8 28.8-28.8 38.4l-134.4 80 131.2 76.8c16 9.6 25.6 22.4 28.8 38.4z" />
<glyph unicode="&#xe90a;" glyph-name="100" d="M201.6 339.2h60.8v172.8c0 6.4 0 12.8 0 22.4l-41.6-35.2c-3.2 0-3.2-3.2-6.4-3.2s-3.2 0-6.4 0-6.4 0-6.4 3.2c-3.2 0-3.2 3.2-6.4 3.2l-16 22.4 89.6 76.8h41.6v-256h54.4v-38.4h-163.2v32zM608 448c0-25.6-3.2-48-9.6-67.2s-12.8-35.2-22.4-48c-9.6-12.8-22.4-22.4-35.2-28.8s-28.8-9.6-41.6-9.6-28.8 3.2-41.6 9.6c-12.8 6.4-25.6 16-35.2 28.8s-16 28.8-22.4 48c-6.4 19.2-9.6 41.6-9.6 67.2s3.2 48 9.6 67.2c6.4 19.2 12.8 35.2 22.4 48s22.4 22.4 35.2 28.8c12.8 6.4 28.8 9.6 41.6 9.6s28.8-3.2 41.6-9.6c12.8-6.4 25.6-16 35.2-28.8s16-28.8 22.4-48c6.4-19.2 9.6-41.6 9.6-67.2zM556.8 448c0 22.4 0 38.4-3.2 54.4-3.2 12.8-6.4 25.6-12.8 32-6.4 9.6-9.6 12.8-19.2 16-6.4 3.2-12.8 6.4-22.4 6.4-6.4 0-12.8-3.2-22.4-6.4-6.4-3.2-12.8-9.6-19.2-16-6.4-9.6-9.6-19.2-12.8-32s-3.2-32-3.2-54.4 0-38.4 3.2-54.4 6.4-25.6 12.8-32c6.4-9.6 9.6-12.8 19.2-16 6.4-3.2 12.8-6.4 22.4-6.4 6.4 0 12.8 3.2 22.4 6.4s12.8 9.6 19.2 16c6.4 9.6 9.6 19.2 12.8 32s3.2 32 3.2 54.4zM844.8 448c0-25.6-3.2-48-9.6-67.2s-12.8-35.2-22.4-48c-9.6-12.8-22.4-22.4-35.2-28.8s-28.8-9.6-41.6-9.6c-16 0-28.8 3.2-41.6 9.6s-25.6 16-35.2 28.8c-9.6 12.8-16 28.8-22.4 48s-9.6 41.6-9.6 67.2c0 25.6 3.2 48 9.6 67.2s12.8 35.2 22.4 48c9.6 12.8 22.4 22.4 35.2 28.8s28.8 9.6 41.6 9.6c16 0 28.8-3.2 41.6-9.6s25.6-16 35.2-28.8c9.6-12.8 16-28.8 22.4-48s9.6-41.6 9.6-67.2zM793.6 448c0 22.4 0 38.4-3.2 54.4-3.2 12.8-6.4 25.6-12.8 32-6.4 9.6-12.8 12.8-19.2 16s-12.8 6.4-22.4 6.4c-6.4 0-12.8-3.2-22.4-6.4-6.4-3.2-12.8-9.6-19.2-16-6.4-9.6-9.6-19.2-12.8-32s-3.2-32-3.2-54.4 0-38.4 3.2-54.4 6.4-25.6 12.8-32c6.4-9.6 9.6-12.8 19.2-16 6.4-3.2 12.8-6.4 22.4-6.4 6.4 0 12.8 3.2 22.4 6.4s12.8 9.6 19.2 16c6.4 9.6 9.6 19.2 12.8 32 0 16 3.2 32 3.2 54.4zM64 560l336 336h-336v-336zM624 896l336-336v336h-336zM960 0v336l-336-336h336zM64 0h336l-336 336v-336z" />
<glyph unicode="&#xe90b;" glyph-name="atom" d="M828.8 448c102.4 99.2 153.6 198.4 118.4 256-19.2 32-64 48-121.6 48v-48c41.6 0 70.4-9.6 80-25.6 6.4-12.8 3.2-32 0-44.8-9.6-25.6-28.8-57.6-54.4-92.8-16-19.2-35.2-41.6-57.6-60.8-28.8 25.6-60.8 51.2-96 76.8-3.2 44.8-9.6 86.4-16 124.8 54.4 16 105.6 22.4 147.2 22.4v48c-44.8 0-99.2-9.6-156.8-25.6-35.2 140.8-92.8 233.6-160 233.6s-124.8-92.8-160-233.6c-57.6 19.2-112 25.6-156.8 25.6-57.6 0-102.4-16-121.6-48-32-57.6 16-156.8 118.4-256-102.4-99.2-153.6-198.4-118.4-256 19.2-32 64-48 121.6-48 44.8 0 99.2 9.6 156.8 25.6 35.2-140.8 92.8-233.6 160-233.6s124.8 92.8 160 233.6c57.6-16 112-25.6 156.8-25.6 60.8 0 102.4 16 121.6 48 32 57.6-16 156.8-121.6 256v0zM758.4 448c-19.2-16-38.4-32-57.6-48 0 16 0 32 0 48s0 32 0 48c19.2-16 41.6-32 57.6-48v0zM636.8 230.4c-22.4 9.6-44.8 16-70.4 28.8 12.8 6.4 25.6 16 41.6 22.4 12.8 6.4 25.6 16 38.4 25.6-3.2-25.6-6.4-51.2-9.6-76.8zM582.4 323.2c-22.4-12.8-48-25.6-70.4-38.4-22.4 12.8-48 25.6-70.4 38.4s-48 28.8-67.2 41.6c-3.2 25.6-3.2 54.4-3.2 83.2s0 54.4 3.2 83.2c22.4 16 44.8 28.8 67.2 41.6s48 25.6 70.4 38.4c22.4-12.8 48-25.6 70.4-38.4s48-28.8 67.2-41.6c3.2-25.6 3.2-54.4 3.2-83.2s0-54.4-3.2-83.2c-19.2-12.8-41.6-28.8-67.2-41.6zM377.6 307.2c12.8-9.6 25.6-16 38.4-25.6 12.8-6.4 25.6-16 41.6-22.4-22.4-9.6-48-19.2-70.4-28.8-3.2 25.6-6.4 51.2-9.6 76.8v0zM323.2 400c-19.2 16-41.6 32-57.6 48 19.2 16 38.4 32 57.6 48 0-16 0-32 0-48s0-32 0-48zM387.2 665.6c22.4-9.6 44.8-16 70.4-28.8-12.8-6.4-25.6-16-41.6-22.4-12.8-6.4-25.6-16-38.4-25.6 3.2 25.6 6.4 51.2 9.6 76.8v0zM608 614.4c-12.8 6.4-25.6 16-41.6 22.4 22.4 9.6 48 19.2 70.4 28.8 3.2-25.6 6.4-48 9.6-73.6-12.8 6.4-25.6 12.8-38.4 22.4zM422.4 793.6c16 41.6 32 73.6 51.2 96 9.6 9.6 25.6 25.6 38.4 25.6s28.8-12.8 38.4-25.6c19.2-22.4 35.2-54.4 51.2-96 9.6-25.6 16-51.2 25.6-80-35.2-12.8-73.6-28.8-115.2-48-38.4 19.2-76.8 35.2-115.2 48 9.6 28.8 16 54.4 25.6 80v0zM172.8 540.8c-28.8 35.2-48 67.2-57.6 92.8-3.2 12.8-9.6 32 0 44.8 9.6 16 38.4 25.6 80 25.6s92.8-6.4 147.2-25.6c-6.4-38.4-12.8-80-16-124.8-35.2-25.6-67.2-51.2-96-76.8-22.4 25.6-41.6 44.8-57.6 64zM195.2 192c-41.6 0-70.4 9.6-80 25.6-6.4 12.8-3.2 32 0 44.8 9.6 25.6 28.8 57.6 57.6 92.8 16 19.2 35.2 41.6 57.6 60.8 28.8-25.6 60.8-51.2 96-76.8 3.2-44.8 9.6-86.4 16-124.8-54.4-16-105.6-22.4-147.2-22.4v0zM601.6 102.4c-16-41.6-32-73.6-51.2-96-9.6-9.6-25.6-25.6-38.4-25.6s-28.8 12.8-38.4 25.6c-19.2 22.4-35.2 54.4-51.2 96-9.6 25.6-16 51.2-25.6 80 35.2 12.8 73.6 28.8 115.2 48 38.4-19.2 76.8-35.2 115.2-48-9.6-28.8-16-54.4-25.6-80v0zM908.8 262.4c3.2-12.8 9.6-32 0-44.8-9.6-16-38.4-25.6-80-25.6s-92.8 9.6-147.2 25.6c6.4 38.4 12.8 80 16 124.8 35.2 25.6 67.2 51.2 96 76.8 22.4-19.2 41.6-41.6 57.6-60.8 28.8-38.4 48-70.4 57.6-96v0zM432 448c0 44.8 35.2 80 80 80s80-35.2 80-80-35.2-80-80-80c-44.8 0-80 35.2-80 80z" />
<glyph unicode="&#xe90c;" glyph-name="at-sign" d="M512 960c-281.6 0-512-230.4-512-512s230.4-512 512-512c108.8 0 217.6 35.2 304 99.2 12.8 9.6 12.8 25.6 3.2 35.2l-32 38.4c-9.6 9.6-22.4 12.8-35.2 3.2-70.4-51.2-156.8-80-243.2-80-224 3.2-409.6 188.8-409.6 416s185.6 412.8 412.8 412.8c227.2 0 412.8-134.4 412.8-364.8 0-131.2-86.4-201.6-172.8-201.6-41.6 0-41.6 25.6-35.2 64l57.6 307.2c3.2 16-9.6 28.8-25.6 28.8h-80c-6.4 0-12.8-3.2-16-6.4s-6.4-9.6-9.6-16c-3.2-12.8-3.2-16-3.2-28.8-25.6 41.6-73.6 64-134.4 64-147.2 0-278.4-128-278.4-316.8 0-124.8 67.2-211.2 192-211.2 60.8 0 128 35.2 163.2 86.4 9.6-64 57.6-80 121.6-80 204.8 0 313.6 131.2 313.6 304 6.4 288-220.8 470.4-505.6 470.4zM457.6 297.6c-57.6 0-92.8 41.6-92.8 108.8 0 118.4 83.2 192 153.6 192 60.8 0 92.8-44.8 92.8-105.6 0-99.2-67.2-195.2-153.6-195.2z" />
<glyph unicode="&#xe90d;" glyph-name="attachment" d="M697.6 633.6l-64 64-326.4-323.2c-54.4-54.4-54.4-140.8 0-195.2s140.8-54.4 195.2 0l390.4 390.4c89.6 89.6 89.6 233.6 0 323.2s-233.6 89.6-323.2 0l-409.6-409.6c0 0 0 0 0 0-128-124.8-128-329.6-3.2-454.4s326.4-124.8 454.4 0c0 0 0 0 0 0v0l278.4 278.4-64 64-278.4-275.2c0 0 0 0 0 0-89.6-89.6-233.6-89.6-323.2 0s-89.6 233.6 0 323.2c0 0 0 0 0 0v0l409.6 409.6c54.4 54.4 140.8 54.4 195.2 0s54.4-140.8 0-195.2l-390.4-390.4c-19.2-19.2-48-19.2-64 0-19.2 19.2-19.2 48 0 64l323.2 326.4z" />
<glyph unicode="&#xe90e;" glyph-name="bank" d="M160 576v-384h-28.8c-9.6 0-16-3.2-25.6-9.6-6.4-6.4-9.6-12.8-9.6-22.4v-32h832v32c0 9.6-3.2 16-9.6 22.4s-16 9.6-25.6 9.6h-28.8v384h-128v-384h-64v384h-128v-384h-64v384h-128v-384h-64v384h-128zM992 64c0 9.6-3.2 16-9.6 22.4s-16 9.6-25.6 9.6h-889.6c-9.6 0-16-3.2-25.6-9.6-6.4-6.4-9.6-12.8-9.6-22.4v-64h960v64zM992 704l-480 192-480-192v-64h64c0-9.6 3.2-16 9.6-22.4s16-9.6 25.6-9.6h761.6c9.6 0 16 3.2 25.6 9.6 6.4 6.4 9.6 12.8 9.6 22.4h64v64z" />
<glyph unicode="&#xe90f;" glyph-name="bank-check" d="M966.4 672h-908.8v-448h908.8v448zM134.4 592h204.8v-35.2h-204.8v35.2zM134.4 496h560v-35.2h-560v35.2zM544 284.8h-409.6v35.2h409.6v-35.2zM899.2 284.8h-288v35.2h288v-35.2zM899.2 400h-764.8v35.2h764.8v-35.2zM899.2 460.8h-144v35.2h144v-35.2zM899.2 560h-355.2v35.2h355.2v-35.2zM0 736v-576h1024v576h-1024zM998.4 188.8h-972.8v518.4h972.8v-518.4z" />
<glyph unicode="&#xe910;" glyph-name="bank-check2" horiz-adv-x="1152" d="M0 832h1152v-768h-1152v768zM160 652.8h473.6v44.8h-473.6v-44.8zM160 515.2h832v44.8h-832v-44.8zM160 380.8h832v44.8h-832v-44.8zM160 243.2h400v44.8h-400v-44.8zM806.4 652.8h185.6v44.8h-185.6v-44.8zM755.2 240c3.2 3.2 6.4 9.6 12.8 12.8 22.4 19.2 41.6 19.2 67.2-12.8v0c41.6-57.6 92.8-57.6 134.4-22.4 9.6 9.6 16 16 22.4 22.4l-38.4 25.6c-3.2-3.2-6.4-9.6-12.8-12.8-22.4-19.2-41.6-19.2-67.2 12.8v0c-41.6 57.6-92.8 57.6-134.4 22.4-9.6-9.6-16-16-22.4-22.4l38.4-25.6z" />
<glyph unicode="&#xe911;" glyph-name="bell" d="M960 192c0 16-6.4 32-16 44.8-38.4 41.6-112 102.4-112 307.2 0 156.8-108.8 278.4-256 310.4v41.6c0 35.2-28.8 64-64 64s-64-28.8-64-64v-41.6c-147.2-32-256-153.6-256-310.4 0-204.8-73.6-265.6-112-307.2-9.6-12.8-16-28.8-16-44.8 0-32 25.6-64 64-64h768c38.4 0 64 32 64 64zM640 64h-256c0-70.4 57.6-128 128-128s128 57.6 128 128z" />
<glyph unicode="&#xe912;" glyph-name="blocked" d="M512 960c89.6 0 176-25.6 256-70.4s140.8-108.8 185.6-185.6c44.8-80 70.4-166.4 70.4-256 0-92.8-25.6-176-70.4-256s-108.8-144-185.6-188.8c-80-44.8-166.4-67.2-256-67.2-92.8 0-176 22.4-256 67.2s-144 108.8-188.8 188.8c-44.8 80-67.2 163.2-67.2 256 0 89.6 22.4 176 67.2 256s108.8 140.8 188.8 185.6c80 44.8 163.2 70.4 256 70.4zM780.8 716.8c-44.8 44.8-96 73.6-153.6 92.8-57.6 16-115.2 19.2-172.8 12.8-60.8-9.6-112-28.8-160-60.8l531.2-531.2c32 48 54.4 102.4 60.8 160 9.6 57.6 3.2 115.2-12.8 172.8-19.2 57.6-51.2 108.8-92.8 153.6zM243.2 179.2c44.8-44.8 92.8-76.8 150.4-92.8 57.6-19.2 115.2-22.4 176-16 57.6 9.6 112 32 160 64l-528 531.2c-32-48-54.4-102.4-64-160-9.6-60.8-3.2-118.4 16-176 12.8-57.6 44.8-105.6 89.6-150.4z" />
<glyph unicode="&#xe913;" glyph-name="book" d="M102.4 156.8c19.2-51.2 73.6-92.8 124.8-92.8h460.8c41.6 0 86.4 32 99.2 76.8l137.6 454.4c6.4 22.4 3.2 48-9.6 64v0c-6.4 9.6-19.2 16-28.8 22.4 0-9.6 0-19.2-3.2-28.8l-150.4-492.8c-6.4-19.2-25.6-28.8-44.8-28.8h-460.8c-28.8 0-60.8 6.4-70.4 35.2-3.2 9.6-3.2 16 0 22.4 3.2 3.2 9.6 3.2 16 3.2h435.2c64 0 76.8 16 99.2 92.8l137.6 454.4c6.4 22.4 3.2 48-9.6 64s-32 28.8-57.6 28.8h-377.6c-9.6 0-16-3.2-25.6-3.2v0c-64 19.2-67.2-51.2-89.6-80-6.4-12.8-19.2-22.4-22.4-32 0-9.6 3.2-16 3.2-25.6-3.2-25.6-22.4-73.6-35.2-89.6-6.4-9.6-19.2-16-22.4-25.6-3.2-6.4 3.2-19.2 0-28.8-3.2-22.4-19.2-67.2-32-89.6-6.4-9.6-16-16-16-25.6-3.2-9.6 3.2-19.2 0-28.8-6.4-25.6-22.4-67.2-38.4-92.8-6.4-12.8-19.2-22.4-19.2-35.2 0-6.4 3.2-12.8 3.2-19.2 0-12.8-3.2-22.4-3.2-32-9.6-22.4-9.6-44.8 0-67.2zM384 656l9.6 32c3.2 9.6 12.8 16 22.4 16h304c9.6 0 12.8-6.4 9.6-16l-9.6-32c-3.2-9.6-12.8-16-22.4-16h-304c-6.4 0-12.8 6.4-9.6 16zM342.4 528l9.6 32c3.2 9.6 12.8 16 22.4 16h304c9.6 0 12.8-6.4 9.6-16l-9.6-32c-3.2-9.6-12.8-16-22.4-16h-304c-6.4 0-12.8 6.4-9.6 16z" />
<glyph unicode="&#xe914;" glyph-name="bookmark" d="M800 960h-576c-28.8 0-51.2-9.6-67.2-28.8-22.4-19.2-28.8-41.6-28.8-67.2v-928l384 224 384-224v928c0 25.6-9.6 48-28.8 67.2s-41.6 28.8-67.2 28.8zM800 102.4l-288 166.4-288-166.4v748.8c0 3.2 0 3.2 3.2 6.4s3.2 6.4 9.6 6.4h550.4c3.2 0 3.2-3.2 6.4-3.2 3.2-3.2 6.4-6.4 6.4-9.6v-748.8z" />
<glyph unicode="&#xe915;" glyph-name="bookmark-solid" d="M896-64v928c0 25.6-9.6 48-28.8 67.2s-41.6 28.8-67.2 28.8h-576c-28.8 0-51.2-9.6-67.2-28.8-22.4-19.2-28.8-41.6-28.8-67.2v-928l384 224 384-224z" />
<glyph unicode="&#xe916;" glyph-name="briefcase" d="M64 32h896c35.2 0 64 28.8 64 64v384l-192-192h-256v-64h-128v64h-256l-192 192v-384c0-35.2 28.8-64 64-64zM448 352v64h128v-64h230.4l217.6 217.6v102.4c0 35.2-28.8 64-64 64h-192l-128 128h-256l-128-128h-192c-35.2 0-64-28.8-64-64v-102.4l217.6-217.6h230.4zM409.6 800h201.6l64-64h-329.6l64 64z" />
<glyph unicode="&#xe917;" glyph-name="business" d="M960-25.6c0 6.4-3.2 12.8-6.4 16s-12.8 9.6-19.2 9.6h-38.4v912c0 12.8-6.4 25.6-12.8 35.2-12.8 6.4-22.4 12.8-35.2 12.8h-672c-12.8 0-25.6-6.4-35.2-12.8-9.6-12.8-12.8-22.4-12.8-35.2v-912h-38.4c-6.4 0-12.8-3.2-19.2-6.4s-6.4-12.8-6.4-19.2v-38.4h896v38.4zM320 806.4c0 6.4 3.2 12.8 6.4 16s9.6 9.6 19.2 9.6h80c6.4 0 12.8-3.2 16-6.4s6.4-12.8 6.4-19.2v-80c0-6.4-3.2-12.8-6.4-19.2s-12.8-3.2-19.2-3.2h-80c-6.4 0-12.8 3.2-19.2 6.4s-3.2 9.6-3.2 19.2v76.8zM320 614.4c0 6.4 3.2 12.8 6.4 16s9.6 6.4 19.2 6.4h80c6.4 0 12.8-3.2 16-6.4s6.4-9.6 6.4-16v-80c0-6.4-3.2-12.8-6.4-19.2s-12.8-3.2-19.2-3.2h-80c-6.4 0-12.8 3.2-19.2 6.4s-3.2 9.6-3.2 19.2v76.8zM422.4 320h-80c-6.4 0-12.8 3.2-19.2 6.4s-3.2 9.6-3.2 19.2v80c0 6.4 3.2 12.8 6.4 16s9.6 6.4 19.2 6.4h80c6.4 0 12.8-3.2 16-6.4s6.4-9.6 6.4-16v-80c0-6.4-3.2-12.8-6.4-19.2s-12.8-6.4-19.2-6.4zM576 0h-128v166.4c0 6.4 3.2 12.8 6.4 16s9.6 6.4 19.2 6.4h80c6.4 0 12.8-3.2 16-6.4s6.4-9.6 6.4-16v-166.4zM704 345.6c0-6.4-3.2-12.8-6.4-19.2s-12.8-6.4-19.2-6.4h-80c-6.4 0-12.8 3.2-19.2 6.4s-3.2 9.6-3.2 19.2v80c0 6.4 3.2 12.8 6.4 16s9.6 6.4 19.2 6.4h80c6.4 0 12.8-3.2 16-6.4s6.4-9.6 6.4-16v-80zM704 537.6c0-6.4-3.2-12.8-6.4-19.2s-12.8-6.4-19.2-6.4h-80c-6.4 0-12.8 3.2-19.2 6.4s-3.2 9.6-3.2 19.2v80c0 6.4 3.2 12.8 6.4 16s9.6 6.4 19.2 6.4h80c6.4 0 12.8-3.2 16-6.4s6.4-9.6 6.4-16v-80zM704 729.6c0-6.4-3.2-12.8-6.4-19.2s-12.8-6.4-19.2-6.4h-80c-6.4 0-12.8 3.2-19.2 6.4s-3.2 9.6-3.2 19.2v76.8c0 6.4 3.2 12.8 6.4 16s9.6 9.6 19.2 9.6h80c6.4 0 12.8-3.2 16-6.4s6.4-12.8 6.4-19.2v-76.8z" />
<glyph unicode="&#xe918;" glyph-name="calendar" d="M1024 768c0 35.2-28.8 64-64 64h-128v92.8c0 19.2-12.8 35.2-32 35.2s-32-16-32-35.2v-92.8h-512v92.8c0 19.2-12.8 35.2-32 35.2s-32-16-32-35.2v-92.8h-128c-35.2 0-64-28.8-64-64v-128h1024v128zM224 672c-35.2 0-64 28.8-64 64 0 22.4 12.8 44.8 32 54.4v-54.4c0-19.2 12.8-32 32-32s32 12.8 32 32v54.4c19.2-9.6 32-32 32-54.4 0-35.2-28.8-64-64-64zM800 672c-35.2 0-64 28.8-64 64 0 22.4 12.8 44.8 32 54.4v-54.4c0-19.2 12.8-32 32-32s32 12.8 32 32v54.4c19.2-9.6 32-32 32-54.4 0-35.2-28.8-64-64-64zM64-64h896c35.2 0 64 28.8 64 64v576h-1024v-576c0-35.2 28.8-64 64-64zM704 512h256v-128h-256v128zM704 320h256v-128h-256v128zM704 128h256v-128h-256v128zM384 512h256v-128h-256v128zM384 320h256v-128h-256v128zM384 128h256v-128h-256v128zM64 512h256v-128h-256v128zM64 320h256v-128h-256v128zM64 128h256v-128h-256v128z" />
<glyph unicode="&#xe919;" glyph-name="calendar-check" d="M768 425.6l-67.2 60.8-198.4-188.8-92.8 89.6-67.2-64 160-150.4zM73.6-64h876.8c41.6 0 73.6 32 73.6 67.2v752c0 38.4-32 67.2-73.6 67.2h-108.8v-35.2c0-38.4-32-67.2-73.6-67.2s-73.6 32-73.6 67.2v35.2h-364.8v-35.2c0-38.4-32-67.2-73.6-67.2s-73.6 32-73.6 67.2v35.2h-108.8c-41.6 0-73.6-28.8-73.6-67.2v-752c0-35.2 32-67.2 73.6-67.2zM73.6 617.6h876.8v-614.4c0 0 0 0 0 0h-876.8c0 0 0 0 0 0v614.4zM220.8 924.8v-137.6c0-19.2 16-35.2 35.2-35.2s35.2 16 35.2 35.2v137.6c0 19.2-16 35.2-35.2 35.2s-35.2-16-35.2-35.2zM732.8 924.8v-137.6c0-19.2 16-35.2 35.2-35.2s35.2 16 35.2 35.2v137.6c0 19.2-16 35.2-35.2 35.2s-35.2-16-35.2-35.2z" />
<glyph unicode="&#xe91a;" glyph-name="cc-amex" horiz-adv-x="1152" d="M60.8 553.6h44.8l-25.6 54.4-19.2-54.4zM371.2 291.2l38.4 38.4-35.2 38.4h-83.2v-25.6h70.4v-22.4h-70.4v-25.6l80-3.2zM448 329.6l48-54.4v108.8l-48-54.4zM592 355.2c0 12.8-9.6 16-19.2 16h-41.6v-35.2h41.6c12.8 0 19.2 6.4 19.2 19.2zM736 355.2c0 12.8-9.6 16-22.4 16h-41.6v-32h41.6c12.8 0 22.4 3.2 22.4 16v0zM598.4 588.8c0 12.8-9.6 16-22.4 16h-41.6v-28.8h41.6c12.8-3.2 22.4 0 22.4 12.8v0zM828.8 553.6h44.8l-22.4 54.4-22.4-54.4zM348.8 633.6v-134.4h-32v105.6l-48-105.6h-28.8l-48 105.6v-105.6h-64l-12.8 28.8h-67.2l-12.8-28.8h-35.2l57.6 134.4h48l54.4-128v128h54.4l41.6-92.8 38.4 92.8h54.4zM627.2 355.2c0-54.4-60.8-44.8-96-44.8v-44.8h-64l-38.4 44.8-41.6-44.8h-128v134.4h131.2l38.4-44.8 41.6 44.8h102.4c32 0 54.4-12.8 54.4-44.8v0zM483.2 524.8v-28.8h-108.8v134.4h108.8v-28.8h-76.8v-25.6h73.6v-28.8h-73.6v-25.6l76.8 3.2zM1152 246.4v-115.2c0-35.2-28.8-67.2-67.2-67.2h-1017.6c-38.4 0-67.2 32-67.2 67.2v339.2h54.4l12.8 32h28.8l12.8-32h108.8v22.4l9.6-22.4h57.6l9.6 22.4v-22.4h272v48h6.4c3.2 0 6.4-3.2 6.4-6.4v-41.6h140.8v9.6c32-16 76.8-12.8 112-12.8l12.8 32h19.2l12.8-32h115.2v28.8l16-28.8h89.6v192h-89.6v-22.4l-12.8 22.4h-92.8v-22.4l-12.8 22.4h-121.6c-19.2 0-38.4-3.2-54.4-9.6v9.6h-86.4v-9.6c-9.6 9.6-22.4 9.6-35.2 9.6h-316.8l-19.2-48-22.4 48h-99.2v-22.4l-9.6 22.4h-86.4l-38.4-89.6v195.2c0 35.2 28.8 67.2 67.2 67.2h1020.8c35.2 0 64-32 64-67.2v-339.2h-60.8c-12.8 0-28.8-3.2-41.6-9.6v9.6h-89.6c-12.8 0-28.8-3.2-38.4-9.6v9.6h-156.8v-9.6c-12.8 9.6-28.8 9.6-44.8 9.6h-105.6v-9.6c-9.6 9.6-32 9.6-44.8 9.6h-118.4l-25.6-28.8-25.6 28.8h-169.6v-188.8h172.8l28.8 28.8 25.6-28.8h105.6v44.8h9.6c16 0 32 0 44.8 6.4v-51.2h86.4v51.2h3.2c6.4 0 6.4 0 6.4-6.4v-44.8h265.6c16 0 32 3.2 44.8 12.8v-12.8h83.2c12.8 0 28.8 3.2 44.8 9.6v0zM774.4 361.6c0-16-6.4-28.8-22.4-35.2 19.2-6.4 22.4-19.2 22.4-35.2v-25.6h-32v22.4c0 22.4-6.4 25.6-28.8 25.6h-35.2v-48h-32v134.4h76.8c22.4 0 51.2-6.4 51.2-38.4v0zM633.6 595.2c0-16-9.6-32-22.4-35.2 19.2-6.4 22.4-19.2 22.4-35.2v-25.6h-32c0 28.8 6.4 48-28.8 48h-35.2v-48h-32v134.4h76.8c25.6-3.2 51.2-6.4 51.2-38.4v0zM899.2 291.2v-28.8h-108.8v134.4h108.8v-28.8h-76.8v-25.6h73.6v-22.4h-73.6v-25.6l76.8-3.2zM684.8 633.6v-134.4h-32v134.4h32zM1033.6 307.2c0-32-22.4-41.6-51.2-41.6h-64v28.8h64c6.4 0 16 3.2 16 12.8 0 28.8-83.2-9.6-83.2 54.4 0 28.8 22.4 41.6 44.8 41.6h64v-28.8h-60.8c-9.6 0-19.2 0-19.2-12.8 3.2-32 89.6 9.6 89.6-54.4zM1152 332.8v-51.2c-9.6-12.8-28.8-16-44.8-16h-64v28.8h64c6.4 0 16 3.2 16 12.8 0 28.8-83.2-9.6-83.2 54.4 0 28.8 22.4 41.6 48 41.6h64v-28.8h-57.6c-9.6 0-19.2 0-19.2-12.8 0-28.8 57.6-3.2 76.8-28.8v0zM1068.8 633.6v-134.4h-44.8l-60.8 102.4v-102.4h-67.2l-12.8 28.8h-67.2l-12.8-28.8h-35.2c-44.8 0-64 22.4-64 67.2s19.2 70.4 67.2 70.4h32v-28.8c-35.2 0-64 6.4-64-38.4 0-22.4 6.4-38.4 32-38.4h16l44.8 105.6h48l54.4-128v128h48l57.6-92.8v92.8l28.8-3.2z" />
<glyph unicode="&#xe91b;" glyph-name="cc-discover" horiz-adv-x="1152" d="M166.4 534.4c0-16-6.4-32-19.2-41.6-9.6-9.6-22.4-12.8-44.8-12.8h-6.4v108.8h9.6c19.2 0 32-3.2 44.8-12.8 9.6-9.6 16-25.6 16-41.6zM1008 592h-9.6v-51.2h9.6c19.2 0 32 9.6 32 25.6s-9.6 25.6-32 25.6zM1152 800v-704c0-54.4-41.6-96-96-96h-960c-54.4 0-96 41.6-96 96v704c0 54.4 41.6 96 96 96h960c54.4 0 96-41.6 96-96zM857.6 454.4h89.6v28.8h-57.6v44.8h57.6v28.8h-57.6v35.2h57.6v28.8h-89.6v-166.4zM684.8 617.6l70.4-169.6h16l70.4 169.6h-35.2l-44.8-108.8-44.8 108.8h-32zM518.4 534.4c0-48 38.4-89.6 89.6-89.6 48 0 89.6 38.4 89.6 89.6 0 48-38.4 89.6-89.6 89.6s-89.6-38.4-89.6-89.6zM380.8 534.4c0-64 67.2-105.6 128-76.8v38.4c-38.4-38.4-92.8-12.8-92.8 38.4 0 48 54.4 76.8 92.8 38.4v38.4c-60.8 32-128-12.8-128-76.8zM313.6 480c-16 0-28.8 6.4-35.2 22.4l-19.2-22.4c35.2-51.2 112-35.2 112 22.4 0 25.6-9.6 38.4-48 51.2-19.2 6.4-25.6 12.8-25.6 19.2 0 16 28.8 28.8 51.2 6.4l16 22.4c-38.4 35.2-99.2 19.2-99.2-28.8 0-22.4 9.6-35.2 41.6-44.8 51.2-19.2 28.8-48 6.4-48zM198.4 534.4c0 48-35.2 83.2-89.6 83.2h-44.8v-163.2h48c60.8 0 86.4 44.8 86.4 80zM246.4 617.6h-32v-163.2h32v163.2zM1088 384c-67.2-41.6-451.2-249.6-832-320h803.2c16 0 28.8 12.8 28.8 28.8v291.2zM1088 454.4l-51.2 70.4c25.6 6.4 38.4 22.4 38.4 44.8 0 57.6-60.8 48-105.6 48v-163.2h32v64h3.2l44.8-64h38.4z" />
<glyph unicode="&#xe91c;" glyph-name="cc-mastercard" horiz-adv-x="1152" d="M966.4 140.8c0-12.8-9.6-22.4-22.4-22.4s-22.4 9.6-22.4 22.4c0 12.8 9.6 22.4 22.4 22.4s22.4-9.6 22.4-22.4zM345.6 163.2c-12.8 0-22.4-9.6-22.4-22.4s9.6-22.4 22.4-22.4c12.8 0 22.4 9.6 22.4 22.4-3.2 12.8-9.6 22.4-22.4 22.4zM579.2 166.4c-9.6 0-16-6.4-19.2-16h38.4c-3.2 9.6-9.6 16-19.2 16zM793.6 163.2c-12.8 0-22.4-9.6-22.4-22.4s9.6-22.4 22.4-22.4c12.8 0 22.4 9.6 22.4 22.4s-6.4 22.4-22.4 22.4zM1008 112c0 0 0 0 0 0 0-3.2 0-3.2 0-3.2s0 0 0-3.2c0 0 0 0-3.2 0 0 0 0 0-3.2 0 0 0 0 0-3.2 0 0 0 0 0 0 0s0 0 0 3.2c0 0 0 0 0 3.2 0 0 0 0 0 3.2 0 0 0 3.2 0 3.2s0 0 0 0 3.2 0 3.2 0c0 0 0 0 3.2 0 0-3.2 0-3.2 3.2-6.4-3.2 3.2-3.2 0 0 0zM1001.6 108.8c3.2 0 3.2 3.2 0 0 3.2 3.2 3.2 3.2 0 0 3.2 3.2 3.2 3.2 0 3.2 0 0 0 0-3.2 0h-3.2v-6.4l6.4 3.2zM1152 800v-704c0-54.4-41.6-96-96-96h-960c-54.4 0-96 41.6-96 96v704c0 54.4 41.6 96 96 96h960c54.4 0 96-41.6 96-96zM128 521.6c0-153.6 124.8-278.4 278.4-278.4 54.4 0 108.8 16 153.6 44.8-147.2 118.4-144 342.4 0 460.8-44.8 28.8-99.2 44.8-153.6 44.8-153.6 3.2-278.4-121.6-278.4-272zM576 304c140.8 108.8 140.8 323.2 0 435.2-140.8-112-140.8-326.4 0-435.2zM291.2 150.4c0 16-12.8 28.8-28.8 28.8-9.6 0-19.2-3.2-25.6-12.8-3.2 9.6-12.8 12.8-25.6 12.8-6.4 0-16-3.2-22.4-9.6v9.6h-16v-73.6h19.2c0 38.4-6.4 60.8 19.2 60.8 19.2 0 16-19.2 16-60.8h16c0 35.2-6.4 60.8 19.2 60.8 19.2 0 16-19.2 16-60.8h16l-3.2 44.8zM380.8 179.2h-16v-9.6c-6.4 6.4-12.8 9.6-22.4 9.6-19.2 0-35.2-16-35.2-38.4s16-38.4 35.2-38.4c9.6 0 19.2 3.2 22.4 9.6v-9.6h16v76.8zM460.8 128c0 28.8-44.8 16-44.8 32 0 12.8 22.4 9.6 38.4 3.2l6.4 12.8c-19.2 12.8-60.8 12.8-60.8-16s44.8-16 44.8-28.8c0-12.8-25.6-12.8-41.6 0l-6.4-12.8c22.4-22.4 64-19.2 64 9.6zM534.4 108.8l-3.2 12.8c-6.4-3.2-25.6-9.6-25.6 9.6v32h25.6v16h-25.6v22.4h-16v-22.4h-16v-16h16v-32c-3.2-35.2 32-28.8 44.8-22.4zM560 134.4h54.4c0 32-16 44.8-35.2 44.8-22.4 0-35.2-16-35.2-38.4 0-41.6 44.8-48 67.2-28.8l-6.4 12.8c-16-12.8-41.6-12.8-44.8 9.6zM678.4 179.2c-9.6 3.2-22.4 3.2-28.8-9.6v9.6h-16v-73.6h16v41.6c0 22.4 19.2 19.2 25.6 16l3.2 16zM697.6 140.8c0 22.4 22.4 28.8 41.6 16l6.4 12.8c-22.4 19.2-64 9.6-64-28.8s44.8-48 64-28.8l-6.4 12.8c-16-12.8-41.6-6.4-41.6 16zM832 179.2h-16v-9.6c-16 22.4-60.8 9.6-60.8-28.8s44.8-48 60.8-28.8v-9.6h16v76.8zM899.2 179.2c-3.2 3.2-22.4 6.4-28.8-9.6v9.6h-16v-73.6h16v41.6c0 22.4 19.2 19.2 25.6 16l3.2 16zM979.2 208h-16v-38.4c-16 22.4-60.8 9.6-60.8-28.8s44.8-48 60.8-28.8v-9.6h16v105.6zM995.2 358.4v-9.6h3.2l-3.2 9.6zM1008 112c0 0 0 0 0 0 0 3.2 0 3.2-3.2 6.4 0 0 0 0-3.2 3.2 0 0-3.2 0-3.2 0s-3.2 0-3.2 0c0 0-3.2 0-3.2-3.2 0 0-3.2 0-3.2-3.2 0 0 0-3.2 0-3.2s0-3.2 0-3.2c0 0 0 0 3.2-3.2 0 0 0 0 3.2-3.2 0 0 3.2 0 3.2 0s3.2 0 3.2 0c0 0 0 0 3.2 3.2 3.2 0 3.2 0 3.2 6.4 0-3.2 0-3.2 0 0zM1014.4 358.4v0l-6.4-6.4-3.2 6.4h-3.2l3.2-6.4h3.2l6.4 6.4-3.2-9.6h3.2v9.6zM1024 521.6c0 153.6-124.8 275.2-278.4 275.2-54.4 0-108.8-16-153.6-44.8 144-118.4 147.2-342.4 0-460.8 44.8-28.8 99.2-44.8 153.6-44.8 153.6-3.2 278.4 121.6 278.4 275.2z" />
<glyph unicode="&#xe91d;" glyph-name="cc-transfer" d="M928 800c51.2 0 96-38.4 96-89.6v-528c0-48-41.6-89.6-96-89.6h-832c-51.2 0-96 38.4-96 89.6v528c0 51.2 41.6 89.6 96 89.6h832zM246.4 540.8l121.6-124.8v83.2l204.8 32v19.2l-204.8 32v83.2l-121.6-124.8zM777.6 374.4l-121.6 124.8v-83.2l-204.8-32v-19.2l204.8-32v-83.2l121.6 124.8z" />
<glyph unicode="&#xe91e;" glyph-name="cc-visa" horiz-adv-x="1152" d="M940.8 496c0 0 16-73.6 19.2-89.6h-67.2c6.4 19.2 32 86.4 32 86.4s6.4 19.2 9.6 28.8l6.4-25.6zM1152 800v-704c0-54.4-41.6-96-96-96h-960c-54.4 0-96 41.6-96 96v704c0 54.4 41.6 96 96 96h960c54.4 0 96-41.6 96-96zM304 297.6l124.8 310.4h-86.4l-80-211.2-9.6 41.6-28.8 144c3.2 19.2-12.8 25.6-28.8 25.6h-131.2v-6.4c32-6.4 60.8-19.2 83.2-35.2l70.4-268.8h86.4zM492.8 297.6l51.2 310.4h-80l-51.2-310.4h80zM774.4 400c0 35.2-22.4 64-67.2 83.2-28.8 12.8-44.8 22.4-44.8 38.4 0 12.8 16 25.6 44.8 25.6 25.6 0 44.8-6.4 60.8-12.8l6.4-3.2 9.6 67.2c-16 6.4-41.6 12.8-70.4 12.8-80 0-134.4-41.6-134.4-102.4 0-44.8 38.4-70.4 70.4-83.2 32-16 41.6-25.6 41.6-38.4 0-19.2-25.6-32-48-32-32 0-48 6.4-76.8 16l-9.6 6.4-12.8-67.2c19.2-9.6 54.4-16 89.6-16 83.2-3.2 140.8 41.6 140.8 105.6zM1056 297.6l-64 310.4h-64c-19.2 0-35.2-6.4-41.6-25.6l-118.4-284.8h83.2c0 0 12.8 38.4 16 48h102.4c3.2-9.6 9.6-48 9.6-48h76.8z" />
<glyph unicode="&#xe91f;" glyph-name="chart-analytics" d="M425.6 0c16 0 28.8 12.8 28.8 28.8v502.4c0 16-12.8 28.8-28.8 28.8h-112c-16 0-28.8-12.8-28.8-28.8v-505.6c0-16 12.8-28.8 28.8-28.8h112zM86.4 448c48 0 86.4 38.4 86.4 83.2 0 6.4 0 16-3.2 22.4l179.2 179.2c6.4-3.2 12.8-3.2 22.4-3.2s22.4 3.2 32 6.4l169.6-134.4c0-3.2 0-9.6 0-12.8 0-44.8 38.4-83.2 86.4-83.2s86.4 38.4 86.4 83.2c0 3.2 0 9.6 0 12.8l169.6 134.4c9.6-3.2 19.2-6.4 32-6.4 48 0 86.4 38.4 86.4 83.2s-48 83.2-96 83.2c-48 0-86.4-38.4-86.4-83.2 0-3.2 0-9.6 0-12.8l-169.6-134.4c-9.6 3.2-19.2 6.4-32 6.4-9.6 0-22.4-3.2-32-6.4l-163.2 134.4c0 3.2 0 9.6 0 12.8 0 44.8-38.4 83.2-83.2 83.2-48 0-86.4-38.4-86.4-83.2 0-6.4 0-16 3.2-22.4l-179.2-179.2c-6.4 3.2-12.8 3.2-22.4 3.2-48 0-86.4-38.4-86.4-83.2s38.4-83.2 86.4-83.2zM710.4 0c16 0 28.8 12.8 28.8 28.8v281.6c0 16-12.8 28.8-28.8 28.8h-115.2c-16 0-28.8-12.8-28.8-28.8v-281.6c0-16 12.8-28.8 28.8-28.8h115.2zM28.8 0h115.2c16 0 28.8 12.8 28.8 28.8v224c0 16-12.8 28.8-28.8 28.8h-115.2c-16 0-28.8-12.8-28.8-28.8v-224c0-16 12.8-28.8 28.8-28.8zM1024 28.8v502.4c0 16-12.8 28.8-28.8 28.8h-115.2c-16 0-28.8-12.8-28.8-28.8v-505.6c0-16 12.8-28.8 28.8-28.8h115.2c16 3.2 28.8 16 28.8 32z" />
<glyph unicode="&#xe920;" glyph-name="chart-area-lineup" d="M25.6 64h976c6.4 0 12.8 3.2 16 6.4s6.4 9.6 6.4 19.2v80c0 6.4-3.2 12.8-6.4 16s-12.8 6.4-19.2 6.4h-870.4v614.4c0 6.4-3.2 12.8-6.4 16s-12.8 9.6-19.2 9.6h-76.8c-9.6 0-16-3.2-19.2-6.4s-6.4-12.8-6.4-19.2v-720c0-6.4 3.2-12.8 6.4-19.2s9.6-3.2 19.2-3.2zM780.8 633.6c-3.2 6.4-12.8 12.8-19.2 12.8-9.6 0-12.8-3.2-25.6-9.6l-160-105.6-169.6 227.2c-6.4 6.4-12.8 6.4-22.4 6.4s-12.8-3.2-19.2-9.6l-172.8-275.2v-224h768l-179.2 377.6z" />
<glyph unicode="&#xe921;" glyph-name="chart-bar" d="M665.6 576c-6.4 0-12.8-3.2-19.2-6.4s-6.4-12.8-6.4-19.2v-272c0-6.4 3.2-12.8 6.4-19.2s9.6-6.4 19.2-6.4h80c6.4 0 12.8 3.2 16 6.4s6.4 9.6 6.4 19.2v272c0 6.4-3.2 12.8-6.4 16s-12.8 9.6-19.2 9.6h-76.8zM281.6 448c-6.4 0-12.8-3.2-19.2-6.4s-6.4-12.8-6.4-19.2v-144c0-6.4 3.2-12.8 6.4-19.2s9.6-3.2 19.2-3.2h80c6.4 0 12.8 3.2 16 6.4s6.4 9.6 6.4 19.2v144c0 6.4-3.2 12.8-6.4 16s-12.8 6.4-19.2 6.4h-76.8zM473.6 704c-6.4 0-12.8-3.2-19.2-6.4s-6.4-12.8-6.4-19.2v-400c0-6.4 3.2-12.8 6.4-19.2s9.6-6.4 19.2-6.4h80c6.4 0 12.8 3.2 16 6.4s6.4 9.6 6.4 19.2v400c0 6.4-3.2 12.8-6.4 16s-12.8 9.6-19.2 9.6h-76.8zM857.6 768c-6.4 0-12.8-3.2-19.2-6.4s-6.4-12.8-6.4-19.2v-464c0-6.4 3.2-12.8 6.4-19.2s9.6-6.4 19.2-6.4h80c6.4 0 12.8 3.2 16 6.4s6.4 9.6 6.4 19.2v464c0 6.4-3.2 12.8-6.4 16s-12.8 9.6-19.2 9.6h-76.8zM25.6 64h976c6.4 0 12.8 3.2 16 6.4s6.4 9.6 6.4 19.2v80c0 6.4-3.2 12.8-6.4 16s-12.8 6.4-19.2 6.4h-870.4v614.4c0 6.4-3.2 12.8-6.4 16s-12.8 9.6-19.2 9.6h-76.8c-9.6 0-16-3.2-19.2-6.4s-6.4-12.8-6.4-19.2v-720c0-6.4 3.2-12.8 6.4-19.2s9.6-3.2 19.2-3.2z" />
<glyph unicode="&#xe922;" glyph-name="chart-bar2" d="M704 704h160v-640h-160v640zM128 576h160v-512h-160v512zM416 864h160v-800h-160v800z" />
<glyph unicode="&#xe923;" glyph-name="chart-bar-grouped" d="M64 384v-320h160v320h-160zM182.4 102.4h-76.8v240h73.6v-240zM288 704h160v-640h-160v640zM576 576v-512h160v512h-160zM694.4 102.4h-73.6v428.8h73.6v-428.8zM800 864h160v-800h-160v800z" />
<glyph unicode="&#xe924;" glyph-name="chart-bar-stacked" d="M128 64h160v640h-160v-640zM160 352h96v-256h-96v256zM416 60.8h160v515.2h-160v-515.2zM448 288h96v-192h-96v192zM704 64h160v800h-160v-800zM736 544h96v-448h-96v448z" />
<glyph unicode="&#xe925;" glyph-name="chart-bullet" d="M64 160v-64h896v704h-896v-64h192v-192h-192v-192h192v-192h-192zM320 352h480v192h-480v192h576v-576h-576v192z" />
<glyph unicode="&#xe926;" glyph-name="chart-line-down" d="M64 64h928c16 0 32 12.8 32 32v64c0 19.2-16 32-32 32h-864v608c0 19.2-16 32-32 32h-64c-16 0-32-12.8-32-32v-672c0-35.2 28.8-64 64-64zM691.2 320h236.8c16 0 32 12.8 32 32v236.8c0 41.6-51.2 64-83.2 35.2l-64-64-192 192c-25.6 25.6-64 25.6-89.6 0l-147.2-150.4-92.8 92.8c-12.8 12.8-32 12.8-44.8 0l-44.8-44.8c-12.8-12.8-12.8-32 0-44.8l137.6-137.6c25.6-25.6 64-25.6 89.6 0l147.2 147.2 147.2-147.2-64-64c-32-32-9.6-83.2 32-83.2z" />
<glyph unicode="&#xe927;" glyph-name="chart-line-down2" d="M64 64h928c16 0 32 12.8 32 32v64c0 19.2-16 32-32 32h-864v608c0 19.2-16 32-32 32h-64c-16 0-32-12.8-32-32v-672c0-35.2 28.8-64 64-64zM531.2 748.8l-147.2-147.2-92.8 92.8c-12.8 12.8-32 12.8-44.8 0l-44.8-44.8c-12.8-12.8-12.8-32 0-44.8l137.6-137.6c25.6-25.6 64-25.6 89.6 0l147.2 147.2 252.8-256c12.8-12.8 35.2-12.8 48 0l41.6 41.6c12.8 12.8 12.8 35.2 0 48l-300.8 300.8c-22.4 25.6-60.8 25.6-86.4 0z" />
<glyph unicode="&#xe928;" glyph-name="chart-line-up" d="M0 806.4v-720c0-12.8 9.6-22.4 25.6-22.4h976c12.8 0 25.6 9.6 25.6 25.6v80c0 12.8-9.6 25.6-25.6 25.6h-873.6v611.2c0 16-9.6 25.6-25.6 25.6h-76.8c-16 0-25.6-9.6-25.6-25.6zM464 585.6c-9.6 9.6-25.6 9.6-35.2 0l-236.8-236.8c-9.6-9.6-9.6-25.6 0-35.2l57.6-57.6c9.6-9.6 25.6-9.6 35.2 0l163.2 163.2 112-112c9.6-9.6 25.6-9.6 35.2 0l217.6 217.6 67.2-67.2c28.8-28.8 83.2-9.6 83.2 35.2v224c-3.2 28.8-25.6 51.2-51.2 51.2v0h-224c-41.6 0-64-51.2-35.2-83.2l67.2-67.2-144-144-112 112z" />
<glyph unicode="&#xe929;" glyph-name="chart-line-up2" d="M25.6 64h972.8c16 0 25.6 12.8 25.6 25.6v80c0 16-12.8 25.6-25.6 25.6h-870.4v611.2c0 16-9.6 25.6-22.4 25.6h-80c-16 0-25.6-9.6-25.6-25.6v-716.8c0-12.8 9.6-22.4 25.6-25.6zM249.6 259.2c9.6-9.6 25.6-9.6 35.2 0l163.2 163.2 112-112c9.6-9.6 25.6-9.6 35.2 0l326.4 336c16 16 16 38.4 0 54.4l-35.2 35.2c-16 16-41.6 16-57.6 0l-256-262.4-112 112c-9.6 9.6-25.6 9.6-35.2 0l-233.6-233.6c-9.6-9.6-9.6-25.6 0-35.2l57.6-57.6z" />
<glyph unicode="&#xe92a;" glyph-name="chart-pie" d="M512-32c243.2 0 448 182.4 476.8 419.2h-537.6v540.8c-236.8-28.8-419.2-236.8-419.2-480 0-265.6 214.4-480 480-480zM198.4 726.4c51.2 57.6 118.4 102.4 195.2 124.8v-521.6h521.6c-22.4-73.6-64-140.8-124.8-195.2v0c-76.8-67.2-176-105.6-278.4-105.6-57.6 0-112 9.6-163.2 32s-96 51.2-134.4 89.6-70.4 83.2-89.6 134.4c-22.4 51.2-32 105.6-32 163.2 0 102.4 38.4 201.6 105.6 278.4zM512 928v-480h480c0 265.6-214.4 480-480 480z" />
<glyph unicode="&#xe92b;" glyph-name="chart-pie-solid" d="M512 928v-480h480c0 265.6-214.4 480-480 480zM451.2 387.2v540.8c-236.8-28.8-419.2-236.8-419.2-480 0-265.6 214.4-480 480-480 243.2 0 448 182.4 476.8 419.2h-537.6z" />
<glyph unicode="&#xe92c;" glyph-name="chart-pie-solid2" d="M531.2 928v-428.8h425.6c0 236.8-192 428.8-425.6 428.8zM457.6 0c118.4 0 227.2 48 304 128l-304 304v425.6c-233.6 0-425.6-192-425.6-428.8s192-428.8 425.6-428.8zM563.2 428.8l304-304c76.8 76.8 128 185.6 128 304h-432z" />
<glyph unicode="&#xe92d;" glyph-name="check" d="M992 720c0 6.4-3.2 12.8-9.6 16l-54.4 57.6c-6.4 3.2-12.8 6.4-19.2 6.4-9.6 0-12.8-3.2-16-6.4l-534.4-528-195.2 195.2c-3.2 3.2-9.6 6.4-16 6.4-9.6 0-12.8-3.2-19.2-6.4l-57.6-57.6c-3.2-6.4-6.4-12.8-6.4-16 0-6.4 3.2-12.8 9.6-16l268.8-268.8c3.2-3.2 9.6-6.4 19.2-6.4 6.4 0 12.8 3.2 16 6.4l608 601.6c3.2 3.2 6.4 6.4 6.4 16z" />
<glyph unicode="&#xe92e;" glyph-name="check-circle" d="M739.2 627.2c-6.4 3.2-12.8 6.4-16 6.4-6.4 0-12.8-3.2-16-6.4l-275.2-272-112 118.4c-6.4 3.2-12.8 6.4-19.2 6.4s-12.8-3.2-16-6.4l-44.8-44.8c-6.4-3.2-6.4-9.6-6.4-16s3.2-12.8 6.4-16l176-176c3.2-6.4 6.4-6.4 16-6.4 6.4 0 12.8 3.2 16 6.4l332.8 329.6c3.2 3.2 6.4 6.4 6.4 16 0 6.4-3.2 12.8-6.4 16l-41.6 44.8zM924.8 688c-41.6 73.6-99.2 131.2-172.8 172.8-73.6 44.8-153.6 67.2-240 67.2s-166.4-22.4-240-67.2c-73.6-41.6-134.4-99.2-176-172.8s-64-153.6-64-240c0-86.4 22.4-166.4 64-240s102.4-134.4 176-176c73.6-41.6 153.6-64 240-64s166.4 22.4 240 64c73.6 41.6 131.2 102.4 172.8 176s67.2 153.6 67.2 240c0 86.4-22.4 166.4-67.2 240zM848 256c-35.2-60.8-83.2-105.6-140.8-140.8-60.8-35.2-124.8-51.2-192-51.2s-134.4 16-192 51.2c-60.8 35.2-105.6 80-140.8 140.8-35.2 57.6-51.2 124.8-51.2 192 0 70.4 16 134.4 51.2 192 28.8 60.8 76.8 108.8 137.6 144 57.6 35.2 124.8 51.2 192 51.2s134.4-16 192-51.2c57.6-35.2 105.6-83.2 140.8-140.8 35.2-60.8 51.2-124.8 51.2-192 3.2-73.6-12.8-137.6-48-195.2z" />
<glyph unicode="&#xe92f;" glyph-name="check-circle-solid" d="M32 448c0-86.4 22.4-166.4 64-240s102.4-134.4 176-176c73.6-41.6 153.6-64 240-64s166.4 22.4 240 64c73.6 41.6 131.2 102.4 172.8 176s67.2 153.6 67.2 240c0 86.4-22.4 166.4-67.2 240-41.6 73.6-99.2 131.2-172.8 172.8-73.6 44.8-153.6 67.2-240 67.2s-166.4-22.4-240-67.2c-73.6-41.6-134.4-99.2-176-172.8s-64-153.6-64-240zM211.2 438.4l44.8 44.8c6.4 6.4 12.8 9.6 22.4 9.6s16-3.2 22.4-9.6l134.4-134.4 291.2 291.2c6.4 6.4 12.8 9.6 22.4 9.6 6.4 0 16-3.2 22.4-9.6l41.6-44.8c6.4-6.4 9.6-12.8 9.6-22.4s-3.2-16-9.6-22.4l-358.4-355.2c-6.4-6.4-12.8-9.6-22.4-9.6s-16 3.2-22.4 9.6l-201.6 201.6c-6.4 3.2-9.6 12.8-9.6 22.4 3.2 6.4 6.4 12.8 12.8 19.2z" />
<glyph unicode="&#xe930;" glyph-name="check-in" d="M512-64c281.6 0 512 230.4 512 512s-230.4 512-512 512-512-230.4-512-512c0-281.6 230.4-512 512-512zM211.2 448l300.8 198.4v-150.4c198.4 0 300.8-124.8 300.8-249.6 0 0-44.8 150.4-300.8 150.4v-150.4l-300.8 201.6z" />
<glyph unicode="&#xe931;" glyph-name="checkin-comments" d="M928 960h-832c-51.2 0-96-44.8-96-96v-576c0-51.2 44.8-96 96-96h160v-256l307.2 256h364.8c51.2 0 96 44.8 96 96v576c0 51.2-44.8 96-96 96zM758.4 326.4c-9.6 41.6-28.8 80-57.6 108.8-60.8 67.2-156.8 89.6-256 70.4v-185.6l-217.6 192c-35.2 35.2-35.2 54.4-35.2 64s0 28.8 38.4 64l217.6 192v-192c176 0 320-115.2 320-256 0-19.2-3.2-38.4-9.6-57.6z" />
<glyph unicode="&#xe932;" glyph-name="checkin-date" d="M64 665.6c0-6.4 3.2-12.8 6.4-19.2s9.6-6.4 19.2-6.4h848c6.4 0 12.8 3.2 16 6.4s6.4 9.6 6.4 19.2v70.4c0 25.6-9.6 48-28.8 67.2s-41.6 28.8-67.2 28.8h-96v102.4c0 6.4-3.2 12.8-6.4 16s-12.8 9.6-19.2 9.6h-80c-6.4 0-12.8-3.2-19.2-6.4s-3.2-12.8-3.2-19.2v-102.4h-256v102.4c0 6.4-3.2 12.8-6.4 16s-12.8 9.6-19.2 9.6h-76.8c-9.6 0-16-3.2-19.2-6.4s-6.4-12.8-6.4-19.2v-102.4h-96c-28.8 0-51.2-9.6-67.2-28.8-22.4-19.2-28.8-41.6-28.8-67.2v-70.4zM64 32c0-28.8 6.4-51.2 28.8-67.2 16-22.4 38.4-28.8 67.2-28.8h224v224h-96l224 256 224-256h-96v-224h224c25.6 0 48 6.4 67.2 28.8 19.2 19.2 28.8 38.4 28.8 67.2v518.4c0 6.4-3.2 12.8-6.4 16s-12.8 9.6-19.2 9.6h-844.8c-6.4 0-12.8-3.2-19.2-6.4s-6.4-12.8-6.4-19.2v-518.4z" />
<glyph unicode="&#xe933;" glyph-name="check-out" d="M512-64c281.6 0 512 230.4 512 512s-230.4 512-512 512-512-230.4-512-512c0-281.6 230.4-512 512-512zM512 499.2v150.4l300.8-198.4-300.8-201.6v150.4c-252.8 0-300.8-150.4-300.8-150.4 0 124.8 102.4 249.6 300.8 249.6z" />
<glyph unicode="&#xe934;" glyph-name="check-solid" d="M348.8 80c6.4-12.8 19.2-16 35.2-16 12.8 0 25.6 3.2 35.2 16l592 592c6.4 6.4 12.8 19.2 12.8 35.2 0 12.8-6.4 25.6-12.8 35.2l-73.6 73.6c-12.8 9.6-22.4 16-38.4 16-12.8 0-25.6-6.4-35.2-16l-480-483.2-224 224c-12.8 12.8-25.6 19.2-38.4 19.2s-25.6-6.4-35.2-16l-73.6-73.6c-9.6-9.6-12.8-22.4-12.8-35.2 0-16 3.2-28.8 12.8-35.2l336-336z" />
<glyph unicode="&#xe935;" glyph-name="check-square" d="M864 0c25.6 0 48 6.4 67.2 28.8 19.2 19.2 28.8 38.4 28.8 67.2v704c0 25.6-9.6 48-28.8 67.2s-41.6 28.8-67.2 28.8h-704c-28.8 0-51.2-9.6-67.2-28.8-22.4-19.2-28.8-41.6-28.8-67.2v-704c0-28.8 6.4-51.2 28.8-67.2 16-22.4 38.4-28.8 67.2-28.8h704zM160 800h704v-704h-704v704zM748.8 662.4c-6.4 6.4-12.8 9.6-19.2 9.6s-12.8-3.2-16-9.6l-284.8-288-118.4 124.8c-6.4 3.2-12.8 6.4-19.2 6.4s-12.8-3.2-16-6.4l-44.8-48c-3.2 0-6.4-6.4-6.4-12.8 0-9.6 3.2-12.8 6.4-19.2l182.4-185.6c3.2-6.4 6.4-9.6 16-9.6 6.4 0 12.8 3.2 19.2 9.6l345.6 352c3.2 3.2 6.4 9.6 6.4 16s-3.2 12.8-6.4 19.2l-44.8 41.6z" />
<glyph unicode="&#xe936;" glyph-name="check-square-solid" d="M160 896c-28.8 0-51.2-9.6-67.2-28.8-22.4-19.2-28.8-41.6-28.8-67.2v-704c0-28.8 6.4-51.2 28.8-67.2 16-22.4 38.4-28.8 67.2-28.8h704c25.6 0 48 6.4 67.2 28.8 19.2 19.2 28.8 38.4 28.8 67.2v704c0 25.6-9.6 48-28.8 67.2s-41.6 28.8-67.2 28.8h-704zM822.4 563.2l-368-368c-6.4-6.4-12.8-9.6-22.4-9.6s-19.2 3.2-22.4 9.6l-208 208c-6.4 6.4-9.6 16-9.6 22.4s3.2 16 9.6 25.6l44.8 44.8c6.4 6.4 12.8 9.6 22.4 9.6s16-3.2 25.6-9.6l140.8-140.8 300.8 300.8c6.4 6.4 12.8 9.6 22.4 9.6s16-3.2 25.6-9.6l44.8-44.8c6.4-6.4 9.6-16 9.6-25.6s-9.6-16-16-22.4z" />
<glyph unicode="&#xe937;" glyph-name="circle" d="M512 720c-48 0-96-12.8-137.6-35.2s-73.6-57.6-99.2-99.2-35.2-89.6-35.2-137.6c0-48 12.8-96 35.2-137.6 25.6-41.6 57.6-73.6 99.2-99.2s86.4-35.2 137.6-35.2 96 12.8 137.6 35.2 73.6 57.6 99.2 99.2c25.6 41.6 35.2 86.4 35.2 137.6 0 48-12.8 96-35.2 137.6s-57.6 73.6-99.2 99.2-89.6 35.2-137.6 35.2zM896 448c0-70.4-16-134.4-51.2-192s-80-105.6-140.8-140.8-121.6-51.2-192-51.2c-70.4 0-134.4 16-192 51.2s-105.6 80-140.8 140.8c-35.2 57.6-51.2 121.6-51.2 192s16 134.4 51.2 192c35.2 60.8 80 105.6 140.8 140.8 57.6 35.2 121.6 51.2 192 51.2s134.4-16 192-51.2c57.6-35.2 105.6-80 140.8-140.8s51.2-121.6 51.2-192z" />
<glyph unicode="&#xe938;" glyph-name="circle-down-right" d="M512-64c281.6 0 512 230.4 512 512s-230.4 512-512 512-512-230.4-512-512c0-281.6 230.4-512 512-512zM368 681.6l208-208v166.4h128v-384h-384v128h166.4l-208 208 89.6 89.6z" />
<glyph unicode="&#xe939;" glyph-name="circle-solid" d="M896 448c0-70.4-16-134.4-51.2-192s-80-105.6-140.8-140.8-121.6-51.2-192-51.2c-70.4 0-134.4 16-192 51.2s-105.6 80-140.8 140.8c-35.2 57.6-51.2 121.6-51.2 192s16 134.4 51.2 192c35.2 60.8 80 105.6 140.8 140.8 57.6 35.2 121.6 51.2 192 51.2s134.4-16 192-51.2c57.6-35.2 105.6-80 140.8-140.8s51.2-121.6 51.2-192z" />
<glyph unicode="&#xe93a;" glyph-name="circle-up-right" d="M512-64c281.6 0 512 230.4 512 512s-230.4 512-512 512-512-230.4-512-512c0-281.6 230.4-512 512-512zM320 512v128h384v-384h-128v166.4l-208-208-89.6 89.6 208 208h-166.4z" />
<glyph unicode="&#xe93b;" glyph-name="claim-fraud" d="M512 768c-35.2 0-64 28.8-64 64v64c0 35.2 28.8 64 64 64s64-28.8 64-64v-64c0-35.2-28.8-64-64-64zM800 256c19.2 0 32-12.8 32-32v-128c0-19.2-12.8-32-32-32h-576c-19.2 0-32 12.8-32 32v128c0 19.2 12.8 32 32 32h32v192c0 140.8 115.2 256 256 256s256-115.2 256-256v-192h32zM864-64h-704c-19.2 0-32 12.8-32 32s12.8 32 32 32h704c19.2 0 32-12.8 32-32s-12.8-32-32-32zM192 704c-16 0-32 6.4-44.8 19.2l-64 64c-25.6 25.6-25.6 64 0 89.6s64 25.6 89.6 0l64-64c25.6-25.6 25.6-64 0-89.6-12.8-12.8-28.8-19.2-44.8-19.2zM128 384h-64c-35.2 0-64 28.8-64 64s28.8 64 64 64h64c35.2 0 64-28.8 64-64s-28.8-64-64-64zM832 704c-16 0-32 6.4-44.8 19.2-25.6 25.6-25.6 64 0 89.6l64 64c25.6 25.6 64 25.6 89.6 0s25.6-64 0-89.6l-64-64c-12.8-12.8-28.8-19.2-44.8-19.2zM960 384h-64c-35.2 0-64 28.8-64 64s28.8 64 64 64h64c35.2 0 64-28.8 64-64s-28.8-64-64-64z" />
<glyph unicode="&#xe93c;" glyph-name="clipboard" d="M464 416h224c3.2 0 6.4 0 9.6 3.2s6.4 6.4 6.4 12.8v32c0 3.2-3.2 6.4-6.4 9.6s-6.4 6.4-9.6 6.4h-224c-3.2 0-6.4-3.2-12.8-6.4s-3.2-6.4-3.2-9.6v-32c0-3.2 0-6.4 3.2-12.8s9.6-3.2 12.8-3.2zM464 224h224c3.2 0 6.4 0 9.6 3.2s6.4 6.4 6.4 12.8v32c0 3.2-3.2 6.4-6.4 9.6s-6.4 6.4-9.6 6.4h-224c-3.2 0-6.4-3.2-12.8-6.4s-3.2-6.4-3.2-9.6v-32c0-3.2 0-6.4 3.2-12.8s9.6-3.2 12.8-3.2zM304 448c0-12.8 6.4-25.6 12.8-35.2 9.6-9.6 19.2-12.8 35.2-12.8 12.8 0 25.6 3.2 35.2 12.8 6.4 6.4 12.8 19.2 12.8 35.2 0 12.8-6.4 25.6-12.8 35.2-9.6 9.6-22.4 12.8-35.2 12.8s-25.6-6.4-35.2-12.8c-9.6-9.6-12.8-22.4-12.8-35.2zM352 304c-12.8 0-25.6-6.4-35.2-12.8-9.6-9.6-12.8-22.4-12.8-35.2s3.2-25.6 12.8-35.2c9.6-9.6 19.2-12.8 35.2-12.8 12.8 0 25.6 3.2 35.2 12.8 6.4 6.4 12.8 19.2 12.8 35.2 0 12.8-6.4 25.6-12.8 35.2-9.6 9.6-22.4 12.8-35.2 12.8zM512 960c-70.4 0-128-57.6-128-128h-160c-54.4 0-96-41.6-96-96v-704c0-54.4 41.6-96 96-96h576c54.4 0 96 41.6 96 96v704c0 54.4-41.6 96-96 96h-160c0 70.4-57.6 128-128 128zM512 880c25.6 0 48-22.4 48-48s-22.4-48-48-48-48 22.4-48 48 22.4 48 48 48zM704 665.6v70.4h83.2c6.4 0 12.8-6.4 12.8-12.8v-678.4c0-6.4-6.4-12.8-12.8-12.8h-550.4c-6.4 0-12.8 6.4-12.8 12.8v678.4c0 6.4 6.4 12.8 12.8 12.8h83.2v-70.4c0-12.8 9.6-25.6 25.6-25.6h336c12.8 0 22.4 9.6 22.4 25.6z" />
<glyph unicode="&#xe93d;" glyph-name="clipboard-checked" d="M665.6 508.8c-9.6 6.4-19.2 6.4-28.8 0l-176-172.8-73.6 73.6c-9.6 6.4-19.2 6.4-25.6 0l-48-48c-6.4-6.4-6.4-16 0-25.6l137.6-137.6c6.4-6.4 19.2-6.4 25.6 0l236.8 236.8c6.4 6.4 6.4 22.4 0 28.8l-48 44.8zM896 32v704c0 54.4-41.6 96-96 96h-160c0 70.4-57.6 128-128 128s-128-57.6-128-128h-160c-54.4 0-96-41.6-96-96v-704c0-54.4 41.6-96 96-96h576c54.4 0 96 41.6 96 96zM512 880c25.6 0 48-22.4 48-48s-22.4-48-48-48-48 22.4-48 48 22.4 48 48 48zM787.2 32h-550.4c-6.4 0-12.8 6.4-12.8 12.8v678.4c0 6.4 6.4 12.8 12.8 12.8h83.2v-70.4c0-12.8 9.6-25.6 25.6-25.6h336c12.8 0 25.6 9.6 25.6 25.6v70.4h83.2c3.2 0 9.6-6.4 9.6-12.8v-678.4c0-6.4-6.4-12.8-12.8-12.8z" />
<glyph unicode="&#xe93e;" glyph-name="clipboard-checked-solid" d="M896 736c0 54.4-41.6 96-96 96h-160c0 70.4-57.6 128-128 128s-128-57.6-128-128h-160c-54.4 0-96-41.6-96-96v-704c0-54.4 41.6-96 96-96h576c54.4 0 96 41.6 96 96v704zM512 880c25.6 0 48-22.4 48-48s-22.4-48-48-48-48 22.4-48 48 22.4 48 48 48zM755.2 416v0l-284.8-284.8c-9.6-9.6-25.6-9.6-35.2 0l-166.4 166.4c-9.6 9.6-9.6 25.6 0 35.2l57.6 57.6c9.6 9.6 25.6 9.6 35.2 0l92.8-92.8 211.2 211.2c9.6 9.6 25.6 9.6 35.2 0l57.6-57.6c6.4-9.6 6.4-25.6-3.2-35.2z" />
<glyph unicode="&#xe93f;" glyph-name="clipboard-empty" d="M896 32v704c0 54.4-41.6 96-96 96h-160c0 70.4-57.6 128-128 128s-128-57.6-128-128h-160c-54.4 0-96-41.6-96-96v-704c0-54.4 41.6-96 96-96h576c54.4 0 96 41.6 96 96zM512 880c25.6 0 48-22.4 48-48s-22.4-48-48-48-48 22.4-48 48 22.4 48 48 48zM787.2 32h-550.4c-6.4 0-12.8 6.4-12.8 12.8v678.4c0 6.4 6.4 12.8 12.8 12.8h83.2v-70.4c0-12.8 9.6-25.6 25.6-25.6h336c12.8 0 25.6 9.6 25.6 25.6v70.4h83.2c3.2 0 9.6-6.4 9.6-12.8v-678.4c0-6.4-6.4-12.8-12.8-12.8z" />
<glyph unicode="&#xe940;" glyph-name="clock" d="M748.8 300.8l-172.8 172.8v230.4h-128v-281.6l211.2-211.2zM512-64c281.6 0 512 230.4 512 512s-230.4 512-512 512-512-230.4-512-512c0-281.6 230.4-512 512-512zM512 832c211.2 0 384-172.8 384-384s-172.8-384-384-384-384 172.8-384 384 172.8 384 384 384z" />
<glyph unicode="&#xe941;" glyph-name="clock-solid" d="M512 960c-281.6 0-512-230.4-512-512s230.4-512 512-512 512 230.4 512 512c0 281.6-230.4 512-512 512zM659.2 211.2l-211.2 211.2v281.6h128v-230.4l172.8-172.8-89.6-89.6z" />
<glyph unicode="&#xe942;" glyph-name="close" d="M160 204.8c0-19.2 6.4-35.2 19.2-44.8l44.8-44.8c9.6-12.8 25.6-19.2 44.8-19.2 16 0 32 6.4 44.8 19.2l198.4 198.4 198.4-198.4c12.8-12.8 25.6-19.2 44.8-19.2 16 0 32 6.4 44.8 19.2l44.8 44.8c12.8 12.8 19.2 28.8 19.2 44.8s-6.4 32-19.2 44.8l-198.4 198.4 198.4 198.4c12.8 12.8 19.2 28.8 19.2 44.8s-6.4 32-19.2 44.8l-44.8 44.8c-12.8 12.8-28.8 19.2-44.8 19.2-19.2 0-32-6.4-44.8-19.2l-198.4-198.4-198.4 198.4c-12.8 12.8-28.8 19.2-44.8 19.2-19.2 0-35.2-6.4-48-19.2l-41.6-41.6c-12.8-16-19.2-32-19.2-48 0-19.2 6.4-32 19.2-44.8l198.4-198.4-198.4-198.4c-12.8-12.8-19.2-28.8-19.2-44.8z" />
<glyph unicode="&#xe943;" glyph-name="close-circle" d="M512-64c281.6 0 512 230.4 512 512s-230.4 512-512 512-512-230.4-512-512c0-281.6 230.4-512 512-512zM512 860.8c227.2 0 412.8-185.6 412.8-412.8s-185.6-412.8-412.8-412.8-412.8 185.6-412.8 412.8c0 227.2 185.6 412.8 412.8 412.8zM300.8 284.8l48-48c9.6-9.6 25.6-9.6 35.2 0l128 128 128-128c9.6-9.6 25.6-9.6 35.2 0l48 48c9.6 9.6 9.6 25.6 0 35.2l-128 128 128 128c9.6 9.6 9.6 25.6 0 35.2l-48 48c-9.6 9.6-25.6 9.6-35.2 0l-128-128-128 128c-9.6 9.6-25.6 9.6-35.2 0l-48-48c-9.6-9.6-9.6-25.6 0-35.2l128-128-128-128c-9.6-9.6-9.6-25.6 0-35.2z" />
<glyph unicode="&#xe944;" glyph-name="close-circle-solid" d="M256 3.2c80-44.8 163.2-67.2 256-67.2 89.6 0 179.2 22.4 256 67.2s140.8 108.8 185.6 188.8c44.8 80 70.4 163.2 70.4 256 0 89.6-25.6 179.2-70.4 256s-105.6 140.8-185.6 185.6c-80 44.8-166.4 70.4-256 70.4-92.8 0-176-25.6-256-70.4s-144-105.6-188.8-185.6c-44.8-80-67.2-166.4-67.2-256 0-92.8 22.4-176 67.2-256s108.8-144 188.8-188.8zM259.2 582.4c-3.2 3.2-6.4 9.6-6.4 19.2 0 6.4 3.2 12.8 6.4 16l83.2 83.2c3.2 3.2 9.6 6.4 16 6.4s12.8-3.2 19.2-6.4l134.4-137.6 134.4 137.6c3.2 3.2 9.6 6.4 19.2 6.4 6.4 0 12.8-3.2 16-6.4l83.2-83.2c3.2-6.4 6.4-12.8 6.4-19.2s-3.2-12.8-6.4-16l-137.6-134.4 137.6-134.4c3.2-6.4 6.4-12.8 6.4-19.2s-3.2-12.8-6.4-16l-83.2-83.2c-6.4-3.2-12.8-6.4-19.2-6.4s-12.8 3.2-16 6.4l-134.4 137.6-134.4-137.6c-6.4-3.2-12.8-6.4-19.2-6.4s-12.8 3.2-16 6.4l-83.2 83.2c-3.2 3.2-6.4 9.6-6.4 16s3.2 12.8 6.4 19.2l137.6 134.4-137.6 134.4z" />
<glyph unicode="&#xe945;" glyph-name="cloud" d="M870.4 534.4c-6.4 89.6-83.2 163.2-179.2 163.2-12.8 0-25.6 0-35.2-3.2-51.2 64-131.2 105.6-220.8 105.6-134.4 0-249.6-92.8-275.2-220.8-96-38.4-160-131.2-160-233.6 0-137.6 115.2-249.6 256-249.6h537.6c128 0 230.4 102.4 230.4 227.2 0 96-64 182.4-153.6 211.2zM793.6 172.8h-537.6c-99.2 0-179.2 80-179.2 176 0 89.6 67.2 163.2 153.6 172.8v3.2c0 112 92.8 201.6 204.8 201.6 86.4 0 160-51.2 188.8-124.8 19.2 16 41.6 25.6 67.2 25.6 57.6 0 102.4-44.8 102.4-99.2 0-19.2-6.4-35.2-12.8-51.2 3.2 0 9.6 0 12.8 0 86.4 0 153.6-67.2 153.6-150.4 0-86.4-67.2-153.6-153.6-153.6z" />
<glyph unicode="&#xe946;" glyph-name="cloud-download" d="M620.8 425.6c-6.4 6.4-19.2 6.4-28.8 0l-86.4-86.4v220.8c0 9.6-9.6 19.2-19.2 19.2h-38.4c-9.6 0-19.2-9.6-19.2-19.2v-220.8l-86.4 86.4c-6.4 6.4-19.2 6.4-28.8 0l-25.6-28.8c-6.4-6.4-6.4-19.2 0-25.6l166.4-163.2c6.4-6.4 19.2-6.4 28.8 0l166.4 163.2c6.4 6.4 6.4 19.2 0 25.6l-28.8 28.8zM870.4 534.4c-6.4 89.6-83.2 163.2-179.2 163.2-12.8 0-25.6 0-35.2-3.2-51.2 64-131.2 105.6-220.8 105.6-134.4 0-249.6-92.8-275.2-220.8-96-38.4-160-131.2-160-233.6 0-137.6 115.2-249.6 256-249.6h537.6c128 0 230.4 102.4 230.4 227.2 0 96-64 182.4-153.6 211.2zM793.6 172.8h-537.6c-99.2 0-179.2 80-179.2 176 0 89.6 67.2 163.2 153.6 172.8v3.2c0 112 92.8 201.6 204.8 201.6 86.4 0 160-51.2 188.8-124.8 19.2 16 41.6 25.6 67.2 25.6 57.6 0 102.4-44.8 102.4-99.2 0-19.2-6.4-35.2-12.8-51.2 3.2 0 9.6 0 12.8 0 86.4 0 153.6-67.2 153.6-150.4 0-86.4-67.2-153.6-153.6-153.6z" />
<glyph unicode="&#xe947;" glyph-name="cloud-download-solid" d="M860.8 492.8c6.4 16 9.6 35.2 9.6 54.4 0 83.2-70.4 150.4-153.6 150.4-32 0-60.8-9.6-86.4-25.6-44.8 76.8-128 124.8-220.8 124.8-140.8 0-256-112-256-252.8 0-3.2 0-9.6 0-12.8-89.6-25.6-153.6-108.8-153.6-208 0-124.8 102.4-227.2 230.4-227.2h588.8c112 0 204.8 89.6 204.8 201.6 0 96-70.4 179.2-163.2 195.2zM636.8 348.8l-147.2-147.2c-16-16-38.4-16-54.4 0l-147.2 147.2c-16 16-16 38.4 0 54.4l16 16c16 16 41.6 16 54.4 0l51.2-54.4v198.4c0 22.4 16 38.4 38.4 38.4h25.6c22.4 0 38.4-16 38.4-38.4v-198.4l51.2 54.4c16 16 38.4 16 54.4 0l16-16c16-16 16-41.6 3.2-54.4z" />
<glyph unicode="&#xe948;" glyph-name="cloud-solid" d="M860.8 492.8c6.4 16 9.6 35.2 9.6 54.4 0 83.2-70.4 150.4-153.6 150.4-32 0-60.8-9.6-86.4-25.6-44.8 76.8-128 124.8-220.8 124.8-140.8 0-256-112-256-252.8 0-3.2 0-9.6 0-12.8-89.6-25.6-153.6-108.8-153.6-208 0-124.8 102.4-227.2 230.4-227.2h588.8c112 0 204.8 89.6 204.8 201.6 0 96-70.4 179.2-163.2 195.2z" />
<glyph unicode="&#xe949;" glyph-name="cloud-upload" d="M870.4 534.4c-6.4 89.6-83.2 163.2-179.2 163.2-12.8 0-25.6 0-35.2-3.2-51.2 64-131.2 105.6-220.8 105.6-134.4 0-249.6-92.8-275.2-220.8-96-38.4-160-131.2-160-233.6 0-137.6 115.2-249.6 256-249.6h537.6c128 0 230.4 102.4 230.4 227.2 0 96-64 182.4-153.6 211.2zM793.6 172.8h-537.6c-99.2 0-179.2 80-179.2 176 0 89.6 67.2 163.2 153.6 172.8v3.2c0 112 92.8 201.6 204.8 201.6 86.4 0 160-51.2 188.8-124.8 19.2 16 41.6 25.6 67.2 25.6 57.6 0 102.4-44.8 102.4-99.2 0-19.2-6.4-35.2-12.8-51.2 3.2 0 9.6 0 12.8 0 86.4 0 153.6-67.2 153.6-150.4 0-86.4-67.2-153.6-153.6-153.6zM480 588.8c-6.4 6.4-19.2 6.4-28.8 0l-163.2-163.2c-6.4-6.4-6.4-19.2 0-25.6l25.6-25.6c6.4-6.4 19.2-6.4 28.8 0l86.4 86.4v-220.8c0-9.6 9.6-19.2 19.2-19.2h38.4c9.6 0 19.2 9.6 19.2 19.2v220.8l86.4-86.4c6.4-6.4 19.2-6.4 28.8 0l25.6 25.6c6.4 6.4 6.4 19.2 0 25.6l-166.4 163.2z" />
<glyph unicode="&#xe94a;" glyph-name="cloud-upload-solid" d="M860.8 492.8c6.4 16 9.6 35.2 9.6 54.4 0 83.2-70.4 150.4-153.6 150.4-32 0-60.8-9.6-86.4-25.6-44.8 76.8-128 124.8-220.8 124.8-140.8 0-256-112-256-252.8 0-3.2 0-9.6 0-12.8-89.6-25.6-153.6-108.8-153.6-208 0-124.8 102.4-227.2 230.4-227.2h588.8c112 0 204.8 89.6 204.8 201.6 0 96-70.4 179.2-163.2 195.2zM636.8 393.6l-16-16c-16-16-41.6-16-54.4 0l-54.4 54.4v-198.4c0-22.4-16-38.4-38.4-38.4h-25.6c-22.4 0-38.4 16-38.4 38.4v198.4l-51.2-54.4c-16-16-38.4-16-54.4 0l-16 16c-16 16-16 38.4 0 54.4l147.2 147.2c16 16 38.4 16 54.4 0l147.2-147.2c12.8-16 12.8-38.4 0-54.4z" />
<glyph unicode="&#xe94b;" glyph-name="code" d="M675.2 249.6l80-86.4 268.8 284.8-268.8 284.8-80-86.4 188.8-198.4-188.8-198.4zM348.8 646.4l-80 86.4-268.8-284.8 268.8-284.8 80 86.4-185.6 198.4 185.6 198.4zM563.2 768l57.6-16-160-624-57.6 16 160 624z" />
<glyph unicode="&#xe94c;" glyph-name="code-branch-solid" d="M678.4 128c67.2 0 121.6 54.4 121.6 118.4s-54.4 121.6-121.6 121.6c-54.4 0-99.2-35.2-115.2-86.4-25.6 0-41.6 6.4-54.4 16-28.8 22.4-35.2 73.6-38.4 128-3.2 41.6-9.6 86.4-25.6 121.6h217.6c16-48 60.8-83.2 115.2-83.2 67.2 0 121.6 54.4 121.6 121.6s-57.6 118.4-124.8 118.4c-54.4 0-99.2-35.2-115.2-83.2h-297.6c-16 48-60.8 83.2-112 83.2-67.2 0-121.6-54.4-121.6-121.6s54.4-121.6 121.6-121.6c51.2 0 96 32 112 76.8 6.4-3.2 16-12.8 19.2-22.4 12.8-25.6 16-60.8 19.2-99.2 6.4-64 12.8-134.4 64-176 25.6-22.4 60.8-32 102.4-32 16-44.8 60.8-80 112-80v0zM800 582.4c0-12.8-9.6-25.6-25.6-25.6s-25.6 9.6-25.6 25.6c0 12.8 9.6 25.6 25.6 25.6s25.6-9.6 25.6-25.6zM224 582.4c0 16 9.6 25.6 25.6 25.6s25.6-9.6 25.6-25.6c0-12.8-9.6-25.6-25.6-25.6-16 3.2-25.6 12.8-25.6 25.6zM704 246.4c0-12.8-9.6-25.6-25.6-25.6s-25.6 9.6-25.6 25.6c0 12.8 9.6 25.6 25.6 25.6s25.6-9.6 25.6-25.6z" />
<glyph unicode="&#xe94d;" glyph-name="cog-solid" d="M918.4 374.4l92.8-51.2c9.6-6.4 16-19.2 12.8-28.8-22.4-73.6-64-140.8-118.4-195.2-3.2-3.2-9.6-6.4-16-6.4s-12.8 0-16 3.2l-92.8 51.2c-38.4-32-83.2-57.6-131.2-73.6v-102.4c0-6.4-3.2-9.6-6.4-16-3.2-3.2-9.6-6.4-16-9.6-76.8-16-156.8-16-236.8 0-12.8 3.2-19.2 12.8-19.2 25.6v102.4c-48 16-92.8 41.6-131.2 73.6l-89.6-51.2c-6.4-3.2-9.6-3.2-16-3.2s-12.8 3.2-16 6.4c-54.4 54.4-92.8 121.6-118.4 195.2-3.2 9.6 0 22.4 12.8 28.8l92.8 51.2c-9.6 48-9.6 96 0 144l-92.8 51.2c-9.6 6.4-16 19.2-12.8 32 22.4 73.6 64 140.8 118.4 195.2 3.2 3.2 9.6 6.4 16 6.4s12.8 0 16-3.2l92.8-51.2c38.4 32 83.2 57.6 131.2 73.6v102.4c0 6.4 3.2 9.6 6.4 16 3.2 3.2 9.6 6.4 16 9.6 76.8 16 156.8 16 236.8 0 12.8-3.2 19.2-12.8 19.2-25.6v-102.4c48-16 92.8-41.6 131.2-73.6l89.6 51.2c6.4 3.2 9.6 3.2 16 3.2s9.6-3.2 16-6.4c54.4-54.4 92.8-121.6 118.4-195.2 3.2-9.6 0-22.4-12.8-28.8l-92.8-51.2c9.6-48 9.6-99.2 0-147.2zM684.8 448c0 89.6-76.8 166.4-172.8 166.4s-172.8-73.6-172.8-166.4 76.8-166.4 172.8-166.4 172.8 76.8 172.8 166.4z" />
<glyph unicode="&#xe94e;" glyph-name="cogs-solid" horiz-adv-x="1280" d="M1024 576l-16-28.8c-6.4-9.6-19.2-16-28.8-9.6-22.4 9.6-44.8 22.4-64 38.4-9.6 6.4-12.8 22.4-6.4 32l16 28.8c-12.8 16-25.6 35.2-32 54.4h-32c-12.8 0-22.4 9.6-25.6 19.2-3.2 25.6-3.2 48 0 73.6 3.2 12.8 12.8 22.4 25.6 22.4h32c6.4 19.2 19.2 38.4 32 54.4l-16 28.8c-6.4 9.6-3.2 22.4 6.4 32 19.2 16 41.6 28.8 64 38.4 12.8 3.2 25.6 0 28.8-9.6l16-32c22.4 3.2 41.6 3.2 64 0l16 28.8c6.4 9.6 19.2 16 28.8 9.6 22.4-9.6 44.8-22.4 64-38.4 9.6-6.4 12.8-22.4 6.4-32l-16-28.8c12.8-16 25.6-35.2 32-54.4h32c12.8 0 22.4-9.6 25.6-19.2 3.2-22.4 3.2-48 0-73.6-3.2-12.8-12.8-22.4-25.6-22.4h-32c-6.4-19.2-19.2-38.4-32-54.4l16-28.8c6.4-9.6 3.2-22.4-6.4-32-19.2-16-41.6-28.8-64-38.4-12.8-3.2-25.6 0-28.8 9.6l-16 32c-22.4-3.2-41.6-3.2-64 0v0zM1004.8 694.4c76.8-60.8 166.4 28.8 105.6 105.6-80 60.8-166.4-28.8-105.6-105.6zM771.2 387.2l67.2-35.2c19.2-12.8 28.8-35.2 22.4-57.6-19.2-48-51.2-92.8-86.4-131.2-16-19.2-41.6-22.4-60.8-9.6l-57.6 35.2c-32-28.8-70.4-48-108.8-64v-67.2c0-22.4-16-44.8-38.4-48-48-9.6-102.4-9.6-150.4 0-22.4 3.2-38.4 22.4-38.4 48v67.2c-41.6 16-76.8 35.2-108.8 64l-57.6-32c-19.2-12.8-44.8-6.4-60.8 9.6-32 38.4-67.2 83.2-83.2 131.2-9.6 22.4 0 48 22.4 57.6l67.2 35.2c-6.4 41.6-6.4 86.4 0 128l-67.2 35.2c-19.2 12.8-28.8 35.2-22.4 57.6 12.8 41.6 44.8 86.4 76.8 124.8 16 19.2 41.6 22.4 60.8 12.8l57.6-35.2c32 28.8 70.4 48 108.8 64v67.2c0 22.4 16 41.6 38.4 48 48 9.6 102.4 9.6 153.6 0 22.4-3.2 38.4-22.4 38.4-48v-67.2c41.6-16 76.8-35.2 108.8-64l57.6 35.2c19.2 12.8 44.8 6.4 60.8-9.6 32-38.4 67.2-83.2 83.2-131.2 6.4-22.4 0-48-19.2-57.6l-64-38.4c9.6-41.6 9.6-83.2 0-124.8v0zM537.6 342.4c118.4 153.6-57.6 329.6-211.2 211.2-118.4-153.6 57.6-329.6 211.2-211.2zM1024-22.4l-16-28.8c-6.4-9.6-19.2-16-28.8-9.6-22.4 9.6-44.8 22.4-64 38.4-9.6 6.4-12.8 22.4-6.4 32l16 28.8c-12.8 16-25.6 35.2-32 54.4h-32c-12.8 0-22.4 9.6-25.6 19.2-3.2 25.6-3.2 48 0 73.6 3.2 12.8 12.8 22.4 25.6 22.4h32c6.4 19.2 19.2 38.4 32 54.4l-16 28.8c-6.4 9.6-3.2 22.4 6.4 32 19.2 16 41.6 28.8 64 38.4 12.8 3.2 25.6 0 28.8-9.6l16-32c22.4 3.2 41.6 3.2 64 0l16 28.8c6.4 9.6 19.2 16 28.8 9.6 22.4-9.6 44.8-22.4 64-38.4 9.6-6.4 12.8-22.4 6.4-32l-16-28.8c12.8-16 25.6-35.2 32-54.4h32c12.8 0 22.4-9.6 25.6-19.2 3.2-25.6 3.2-48 0-73.6-3.2-12.8-12.8-22.4-25.6-22.4h-32c-6.4-19.2-19.2-38.4-32-54.4l16-28.8c6.4-9.6 3.2-22.4-6.4-32-19.2-16-41.6-28.8-64-38.4-12.8-3.2-25.6 0-28.8 9.6l-16 32c-22.4-3.2-41.6-3.2-64 0zM1004.8 96c76.8-60.8 166.4 28.8 105.6 105.6-80 57.6-166.4-28.8-105.6-105.6z" />
<glyph unicode="&#xe94f;" glyph-name="commcenter" d="M832 448c0 176-144 320-320 320s-320-144-320-320c0-89.6 35.2-169.6 92.8-227.2l44.8 44.8c-44.8 48-73.6 112-73.6 182.4 0 140.8 115.2 256 256 256s256-115.2 256-256c0-70.4-28.8-134.4-73.6-182.4l44.8-44.8c57.6 57.6 92.8 137.6 92.8 227.2zM601.6 358.4c22.4 22.4 38.4 54.4 38.4 89.6 0 70.4-57.6 128-128 128s-128-57.6-128-128c0-35.2 12.8-67.2 38.4-89.6l44.8 44.8c-12.8 9.6-19.2 25.6-19.2 44.8 0 35.2 28.8 64 64 64s64-28.8 64-64c0-19.2-6.4-35.2-19.2-44.8l44.8-44.8zM195.2 131.2c-80 80-131.2 192-131.2 316.8 0 246.4 201.6 448 448 448s448-201.6 448-448c0-124.8-51.2-236.8-131.2-316.8l44.8-44.8c92.8 92.8 150.4 220.8 150.4 361.6 0 281.6-230.4 512-512 512s-512-230.4-512-512c0-140.8 57.6-268.8 150.4-361.6l44.8 44.8zM704-64l-166.4 448h-51.2l-166.4-448z" />
<glyph unicode="&#xe950;" glyph-name="comment" d="M512 896c-281.6 0-512-185.6-512-416 0-96 38.4-182.4 105.6-252.8-28.8-80-92.8-147.2-92.8-147.2-12.8-12.8-16-35.2-9.6-51.2 9.6-16 25.6-28.8 44.8-28.8 121.6 0 220.8 51.2 278.4 92.8 57.6-19.2 121.6-28.8 185.6-28.8 281.6 0 512 185.6 512 416s-230.4 416-512 416zM512 160c-54.4 0-105.6 9.6-156.8 25.6l-44.8 12.8-38.4-28.8c-28.8-19.2-67.2-41.6-115.2-57.6 16 25.6 28.8 51.2 38.4 80l22.4 57.6-41.6 44.8c-35.2 38.4-80 102.4-80 185.6 0 176 185.6 320 416 320s416-144 416-320-185.6-320-416-320z" />
<glyph unicode="&#xe951;" glyph-name="comments" d="M947.2 198.4c48 48 76.8 108.8 76.8 176 0 144-134.4 262.4-313.6 281.6-54.4 102.4-188.8 176-339.2 176-204.8 0-371.2-128-371.2-284.8 0-67.2 28.8-128 76.8-176-25.6-54.4-67.2-96-67.2-99.2-9.6-12.8-12.8-28.8-6.4-44.8s22.4-25.6 38.4-25.6c96 0 172.8 35.2 224 70.4 16-3.2 32-6.4 51.2-9.6 54.4-102.4 185.6-176 339.2-176 38.4 0 73.6 3.2 105.6 12.8 51.2-32 128-70.4 224-70.4 16 0 32 9.6 38.4 25.6s3.2 32-6.4 44.8c-6.4 3.2-44.8 44.8-70.4 99.2zM246.4 364.8l-28.8-19.2c-25.6-16-51.2-28.8-76.8-38.4 3.2 9.6 9.6 16 12.8 25.6l28.8 54.4-44.8 44.8c-22.4 22.4-51.2 64-51.2 115.2 0 108.8 131.2 198.4 284.8 198.4s284.8-92.8 284.8-198.4c0-108.8-131.2-201.6-284.8-201.6-28.8 0-57.6 3.2-86.4 9.6l-38.4 9.6zM886.4 259.2l-44.8-44.8 28.8-54.4c3.2-9.6 9.6-19.2 12.8-25.6-25.6 9.6-51.2 22.4-76.8 38.4l-28.8 19.2-35.2-9.6c-28.8-6.4-57.6-9.6-86.4-9.6-96 0-182.4 35.2-233.6 89.6 179.2 19.2 320 137.6 320 281.6 0 6.4 0 12.8 0 19.2 115.2-25.6 201.6-102.4 201.6-188.8-6.4-51.2-35.2-89.6-57.6-115.2z" />
<glyph unicode="&#xe952;" glyph-name="comment-solid" d="M512 896c-281.6 0-512-185.6-512-416 0-99.2 41.6-188.8 115.2-262.4-25.6-99.2-108.8-192-108.8-192-6.4-3.2-6.4-9.6-6.4-16s9.6-9.6 16-9.6c131.2 0 230.4 64 281.6 102.4 64-25.6 137.6-38.4 214.4-38.4 281.6 0 512 185.6 512 416s-230.4 416-512 416z" />
<glyph unicode="&#xe953;" glyph-name="comments-solid" d="M739.2 547.2c0 156.8-166.4 284.8-368 284.8-204.8 0-371.2-128-371.2-284.8 0-60.8 25.6-118.4 67.2-163.2-22.4-54.4-64-96-64-96-3.2-6.4-3.2-12.8-3.2-19.2 3.2-6.4 6.4-9.6 12.8-9.6 64 0 118.4 22.4 156.8 44.8 57.6-28.8 124.8-44.8 198.4-44.8 204.8 0 371.2 128 371.2 288zM956.8 153.6c41.6 48 67.2 102.4 67.2 163.2 0 118.4-96 220.8-230.4 265.6 0-12.8 3.2-22.4 3.2-35.2 0-188.8-192-342.4-425.6-342.4-19.2 0-38.4 0-57.6 3.2 54.4-102.4 188.8-176 339.2-176 73.6 0 140.8 16 198.4 44.8 38.4-22.4 92.8-44.8 156.8-44.8 6.4 0 9.6 3.2 12.8 9.6s0 12.8-3.2 16c3.2 0-38.4 41.6-60.8 96z" />
<glyph unicode="&#xe954;" glyph-name="compress" d="M28.8-57.6c3.2-6.4 16-6.4 22.4 0l227.2 227.2 89.6-89.6c9.6-9.6 22.4-12.8 32-12.8 25.6 0 48 19.2 48 48v224c0 25.6-22.4 48-48 48h-224c-41.6 0-64-51.2-35.2-83.2l89.6-89.6-227.2-227.2c-6.4-6.4-6.4-16 0-22.4l25.6-22.4zM214.4 320h169.6v-169.6l-169.6 169.6zM896 336c0 25.6-19.2 48-48 48h-224c-25.6 0-48-22.4-48-48v-224c0-41.6 51.2-64 83.2-35.2l89.6 89.6 227.2-227.2c6.4-6.4 16-6.4 22.4 0l22.4 22.4c6.4 6.4 6.4 16 0 22.4l-227.2 227.2 89.6 89.6c9.6 12.8 12.8 22.4 12.8 35.2zM640 150.4v169.6h169.6l-169.6-169.6zM1020.8 931.2l-22.4 22.4c-6.4 6.4-16 6.4-22.4 0l-227.2-227.2-89.6 89.6c-9.6 9.6-22.4 12.8-32 12.8-28.8 3.2-51.2-16-51.2-44.8v-224c0-25.6 22.4-48 48-48h224c41.6 0 64 51.2 35.2 83.2l-89.6 89.6 227.2 227.2c3.2 3.2 3.2 12.8 0 19.2zM809.6 576h-169.6v169.6l169.6-169.6zM230.4 681.6l-89.6-89.6c-9.6-9.6-12.8-22.4-12.8-32 0-25.6 19.2-48 48-48h224c25.6 0 48 22.4 48 48v224c0 41.6-51.2 64-83.2 35.2l-89.6-89.6-224 227.2c-6.4 3.2-16 3.2-22.4 0l-25.6-25.6c-3.2-6.4-3.2-16 0-22.4l227.2-227.2zM384 745.6v-169.6h-169.6l169.6 169.6z" />
<glyph unicode="&#xe955;" glyph-name="configuration-package" d="M512 896l-448-192 448-192 448 192-448 192zM64 128l384-160v448l-384 160v-448zM576-32l384 160v448l-384-160v-448z" />
<glyph unicode="&#xe956;" glyph-name="consumer" d="M512-64c-281.6 0-512 230.4-512 512s230.4 512 512 512 512-230.4 512-512-230.4-512-512-512zM377.6 352v25.6c28.8 19.2 54.4 64 54.4 112 0 73.6 0 134.4-80 134.4s-80-60.8-80-134.4c0-48 25.6-92.8 54.4-112v-25.6c-92.8-9.6-160-57.6-160-118.4h377.6c-6.4 57.6-76.8 108.8-166.4 118.4v0zM854.4 268.8v64h-249.6v-64h249.6zM854.4 396.8v64h-249.6v-64h249.6zM854.4 521.6v64h-249.6v-64h249.6z" />
<glyph unicode="&#xe957;" glyph-name="consumer_contacts" d="M928 448h32c35.2 0 64 28.8 64 64v128h-96v-192zM928 896v-192h32c35.2 0 64 28.8 64 64v128h-96zM896 384v576h-832c-35.2 0-64-28.8-64-64v-896c0-35.2 28.8-64 64-64h832v448zM192 0h-64v896h64v-896zM576 352c108.8-9.6 192-60.8 192-128h-448c0 64 83.2 118.4 192 128v25.6c-35.2 19.2-64 70.4-64 118.4 0 80 0 144 96 144s96-64 96-144c0-48-28.8-99.2-64-118.4v-25.6zM928 192h32c35.2 0 64 28.8 64 64v128h-96v-192z" />
<glyph unicode="&#xe958;" glyph-name="copy" d="M160-64h448c54.4 0 96 41.6 96 96v96h160c54.4 0 96 41.6 96 96v537.6c0 25.6-9.6 51.2-28.8 67.2l-102.4 102.4c-19.2 19.2-41.6 28.8-67.2 28.8h-345.6c-54.4 0-96-41.6-96-96v-96h-160c-54.4 0-96-41.6-96-96v-640c0-54.4 41.6-96 96-96zM768 896c6.4 0 9.6-3.2 16-9.6l102.4-102.4c3.2-6.4 6.4-9.6 9.6-16h-128v128zM384 864c0 19.2 12.8 32 32 32h288v-144c0-25.6 22.4-48 48-48h144v-480c0-19.2-12.8-32-32-32h-448c-19.2 0-32 12.8-32 32v640zM128 672c0 19.2 12.8 32 32 32h160v-480c0-54.4 41.6-96 96-96h224v-96c0-19.2-12.8-32-32-32h-448c-19.2 0-32 12.8-32 32v640z" />
<glyph unicode="&#xe959;" glyph-name="copy-settings" d="M704 32v96h160c54.4 0 96 41.6 96 96v537.6c0 25.6-9.6 51.2-28.8 67.2l-102.4 102.4c-19.2 19.2-44.8 28.8-67.2 28.8h-345.6c-54.4 0-96-41.6-96-96v-96h-160c-54.4 0-96-41.6-96-96v-640c0-54.4 41.6-96 96-96h448c54.4 0 96 41.6 96 96zM768 896c6.4 0 9.6-3.2 16-9.6l102.4-102.4c3.2-6.4 6.4-9.6 9.6-16h-128v128zM384 864c0 19.2 16 32 32 32h288v-144c0-25.6 22.4-48 48-48h144v-480c0-16-16-32-32-32h-448c-16 0-32 16-32 32v640zM128 32v640c0 19.2 16 32 32 32h160v-480c0-54.4 41.6-96 96-96h224v-96c0-16-16-32-32-32h-448c-16 0-32 12.8-32 32zM480 435.2c6.4-22.4 19.2-41.6 35.2-57.6 3.2-3.2 6.4-3.2 9.6 0l25.6 16c9.6-9.6 22.4-16 38.4-22.4v-32c0-3.2 3.2-6.4 6.4-6.4 22.4-6.4 44.8-6.4 67.2 0 3.2 0 6.4 3.2 6.4 6.4v32c12.8 3.2 25.6 12.8 38.4 22.4l25.6-16c3.2-3.2 6.4 0 9.6 0 16 16 25.6 35.2 35.2 57.6 0 3.2 0 6.4-3.2 9.6l-25.6 16c3.2 12.8 3.2 28.8 0 44.8l25.6 16c3.2 3.2 3.2 6.4 3.2 9.6-6.4 22.4-19.2 41.6-35.2 57.6-3.2 3.2-6.4 3.2-9.6 0l-28.8-19.2c-9.6 9.6-22.4 16-38.4 22.4v28.8c0 3.2-3.2 6.4-6.4 6.4-22.4 6.4-44.8 3.2-67.2 0-3.2 0-6.4-3.2-6.4-6.4v-28.8c-12.8-6.4-25.6-12.8-38.4-22.4l-25.6 16c-3.2 3.2-6.4 0-9.6 0-16-16-25.6-35.2-35.2-57.6 0-3.2 0-6.4 3.2-9.6l25.6-16c-3.2-12.8-3.2-28.8 0-44.8l-25.6-16c3.2 0 0-3.2 0-6.4zM627.2 531.2c25.6 0 48-22.4 48-48s-22.4-48-48-48c-25.6 0-48 22.4-48 48s22.4 48 48 48z" />
<glyph unicode="&#xe95a;" glyph-name="copy-user" d="M160-64h448c54.4 0 96 41.6 96 96v96h160c54.4 0 96 41.6 96 96v537.6c0 25.6-9.6 51.2-28.8 67.2l-102.4 102.4c-19.2 19.2-44.8 28.8-67.2 28.8h-345.6c-54.4 0-96-41.6-96-96v-96h-160c-54.4 0-96-41.6-96-96v-640c0-54.4 41.6-96 96-96zM768 896c6.4 0 9.6-3.2 16-9.6l102.4-102.4c3.2-6.4 6.4-9.6 9.6-16h-128v128zM384 864c0 19.2 16 32 32 32h288v-144c0-25.6 22.4-48 48-48h144v-480c0-16-16-32-32-32h-448c-16 0-32 16-32 32v640zM128 672c0 19.2 16 32 32 32h160v-480c0-54.4 41.6-96 96-96h224v-96c0-16-16-32-32-32h-448c-16 0-32 16-32 32v640zM515.2 320h233.6c3.2 0 6.4 0 6.4 3.2 3.2 3.2 3.2 6.4 3.2 6.4-3.2 25.6-12.8 51.2-28.8 70.4s-35.2 32-54.4 38.4v9.6c12.8 9.6 22.4 19.2 28.8 35.2 9.6 16 12.8 35.2 12.8 54.4 0 25.6-9.6 51.2-25.6 70.4s-38.4 28.8-60.8 28.8c-22.4 0-44.8-9.6-60.8-28.8s-25.6-44.8-25.6-70.4c0-19.2 3.2-38.4 12.8-54.4 6.4-12.8 16-25.6 28.8-35.2v-9.6c-22.4-6.4-41.6-19.2-54.4-38.4-16-19.2-25.6-44.8-28.8-70.4 0-3.2 0-6.4 3.2-6.4 3.2-3.2 6.4-3.2 9.6-3.2z" />
<glyph unicode="&#xe95b;" glyph-name="credit-card" d="M928 832h-832c-51.2 0-96-41.6-96-96v-576c0-51.2 44.8-96 96-96h832c51.2 0 96 44.8 96 96v576c0 54.4-44.8 96-96 96zM96 768h832c16 0 32-16 32-32v-96h-896v96c0 16 16 32 32 32zM928 128h-832c-16 0-32 16-32 32v288h896v-288c0-16-16-32-32-32zM128 320h64v-128h-64v128zM256 320h64v-128h-64v128zM384 320h64v-128h-64v128z" />
<glyph unicode="&#xe95c;" glyph-name="cursor-hand" d="M576 960h-128c-19.2 0-32-12.8-32-32v-32h-96c-19.2 0-32-12.8-32-32v-486.4l-102.4 124.8c-9.6 12.8-28.8 16-41.6 6.4l-96-64c-16-9.6-19.2-28.8-9.6-44.8l160-256c0-3.2 3.2-3.2 3.2-6.4l192-192c6.4-6.4 12.8-9.6 22.4-9.6h320c12.8 0 22.4 6.4 28.8 19.2l96 192c3.2 3.2 3.2 6.4 3.2 12.8v576c0 19.2-12.8 32-32 32h-96v96c0 19.2-12.8 32-32 32h-96v32c0 19.2-12.8 32-32 32zM672 832v-416c0-19.2 12.8-32 32-32s32 12.8 32 32v288h64v-537.6l-83.2-166.4h-288l-179.2 179.2-140.8 227.2 44.8 32 140.8-169.6c9.6-9.6 22.4-12.8 35.2-9.6s22.4 16 22.4 28.8v544h64v-416c0-19.2 12.8-32 32-32s32 12.8 32 32v480h64v-480c0-19.2 12.8-32 32-32s32 12.8 32 32v416h64z" />
<glyph unicode="&#xe95d;" glyph-name="cursor-pointer" d="M224 150.4l198.4 192 201.6-406.4 169.6 86.4-201.6 403.2 272 48-640 486.4z" />
<glyph unicode="&#xe95e;" glyph-name="database" d="M512 960c-281.6 0-512-86.4-512-192v-640c0-105.6 230.4-192 512-192s512 86.4 512 192v640c0 105.6-230.4 192-512 192zM851.2 51.2c-41.6-16-92.8-28.8-150.4-38.4-60.8-9.6-121.6-12.8-188.8-12.8s-128 3.2-188.8 12.8c-57.6 9.6-108.8 22.4-150.4 38.4-89.6 35.2-108.8 67.2-108.8 76.8v227.2c86.4-57.6 256-99.2 448-99.2s361.6 38.4 448 99.2v-227.2c0-9.6-19.2-41.6-108.8-76.8zM851.2 371.2c-41.6-16-92.8-28.8-150.4-38.4-60.8-9.6-121.6-12.8-188.8-12.8s-128 3.2-188.8 12.8c-57.6 9.6-108.8 22.4-150.4 38.4-89.6 35.2-108.8 67.2-108.8 76.8v227.2c86.4-57.6 256-99.2 448-99.2s361.6 38.4 448 99.2v-227.2c0-9.6-19.2-41.6-108.8-76.8zM880 704v0c-9.6-3.2-19.2-6.4-28.8-12.8-41.6-16-92.8-28.8-150.4-38.4-60.8-6.4-121.6-12.8-188.8-12.8s-128 3.2-188.8 12.8c-57.6 9.6-108.8 22.4-150.4 38.4-9.6 6.4-19.2 9.6-28.8 12.8-64 28.8-80 54.4-80 64s19.2 41.6 108.8 76.8c41.6 16 92.8 28.8 150.4 38.4 60.8 6.4 121.6 12.8 188.8 12.8s128-3.2 188.8-12.8c57.6-9.6 108.8-22.4 150.4-38.4 89.6-35.2 108.8-67.2 108.8-76.8s-16-35.2-80-64z" />
<glyph unicode="&#xe95f;" glyph-name="database-add" d="M896 320h-128v-128h-128v-128h128v-128h128v128h128v128h-128zM448 121.6c-57.6 0-112 3.2-166.4 12.8-51.2 6.4-92.8 19.2-131.2 32-76.8 28.8-96 57.6-96 67.2v198.4c76.8-51.2 224-86.4 390.4-86.4s316.8 35.2 390.4 86.4v-44.8h60.8v403.2c0 92.8-201.6 169.6-448 169.6s-448-76.8-448-169.6v-560c0-89.6 201.6-166.4 448-166.4 44.8 0 86.4 3.2 128 6.4v57.6c-41.6-6.4-83.2-6.4-128-6.4zM838.4 512c0-6.4-16-38.4-96-67.2-38.4-12.8-83.2-25.6-131.2-32-51.2-9.6-108.8-12.8-166.4-12.8s-112 3.2-166.4 12.8c-51.2 6.4-92.8 19.2-131.2 32-76.8 28.8-96 57.6-96 67.2v198.4c76.8-51.2 224-86.4 390.4-86.4 169.6 0 316.8 35.2 390.4 86.4v-198.4zM150.4 857.6c38.4 12.8 83.2 25.6 131.2 32 51.2 9.6 108.8 12.8 166.4 12.8s112-3.2 166.4-12.8c51.2-6.4 92.8-19.2 131.2-32 76.8-28.8 96-57.6 96-67.2 0-6.4-12.8-32-70.4-57.6-6.4-3.2-16-6.4-25.6-9.6-38.4-12.8-83.2-25.6-131.2-32-51.2-9.6-108.8-12.8-166.4-12.8s-112 3.2-166.4 12.8c-51.2 6.4-92.8 19.2-131.2 32-9.6 6.4-16 9.6-25.6 12.8-54.4 25.6-70.4 48-70.4 54.4 0 9.6 19.2 38.4 96 67.2z" />
<glyph unicode="&#xe960;" glyph-name="database-error" d="M736 448c-124.8 0-224-99.2-224-224s99.2-224 224-224 224 99.2 224 224-99.2 224-224 224zM764.8 83.2h-57.6v57.6h57.6v-57.6zM764.8 195.2h-57.6v166.4h57.6v-166.4zM454.4 160c-51.2 0-99.2 3.2-144 9.6s-83.2 16-115.2 28.8c-67.2 25.6-83.2 51.2-83.2 57.6v172.8c67.2-44.8 195.2-76.8 342.4-76.8v48c-51.2 0-99.2 3.2-144 9.6s-83.2 16-115.2 28.8c-67.2 25.6-83.2 51.2-83.2 57.6v182.4c67.2-44.8 195.2-76.8 342.4-76.8s275.2 32 342.4 76.8v-172.8h48v243.2c3.2 80-172.8 147.2-387.2 147.2s-393.6-67.2-393.6-147.2v-492.8c0-80 176-147.2 390.4-147.2v51.2zM195.2 806.4c32 12.8 70.4 22.4 115.2 28.8s96 9.6 144 9.6 99.2-3.2 144-9.6c44.8-6.4 83.2-16 115.2-28.8 70.4-25.6 86.4-51.2 86.4-57.6s-12.8-25.6-60.8-48c-6.4-3.2-12.8-6.4-22.4-9.6-32-12.8-70.4-22.4-115.2-28.8s-96-9.6-144-9.6-99.2 3.2-144 9.6c-44.8 6.4-83.2 16-118.4 28.8-6.4 3.2-16 6.4-22.4 9.6-48 22.4-60.8 41.6-60.8 48s16 32 83.2 57.6z" />
<glyph unicode="&#xe961;" glyph-name="database-selected-column" d="M512 960c-281.6 0-512-86.4-512-192v-640c0-105.6 230.4-192 512-192s512 86.4 512 192v640c0 105.6-230.4 192-512 192zM64 675.2c32-22.4 76.8-41.6 128-57.6v-252.8c-6.4 3.2-12.8 3.2-19.2 6.4-89.6 35.2-108.8 67.2-108.8 76.8v227.2zM64 128v227.2c32-22.4 76.8-41.6 128-57.6v-252.8c-6.4 3.2-12.8 3.2-19.2 6.4-89.6 35.2-108.8 67.2-108.8 76.8zM851.2 51.2c-41.6-16-92.8-28.8-150.4-38.4-60.8-9.6-121.6-12.8-188.8-12.8-44.8 0-86.4 3.2-128 6.4v256c41.6-3.2 83.2-6.4 128-6.4 192 0 361.6 38.4 448 99.2v-227.2c0-9.6-19.2-41.6-108.8-76.8zM851.2 371.2c-41.6-16-92.8-28.8-150.4-38.4-60.8-9.6-121.6-12.8-188.8-12.8-44.8 0-86.4 3.2-128 6.4v256c41.6-3.2 83.2-6.4 128-6.4 192 0 361.6 38.4 448 99.2v-227.2c0-9.6-19.2-41.6-108.8-76.8zM880 704v0c-9.6-3.2-19.2-6.4-28.8-12.8-41.6-16-92.8-28.8-150.4-38.4-60.8-6.4-121.6-12.8-188.8-12.8s-128 3.2-188.8 12.8c-57.6 9.6-108.8 22.4-150.4 38.4-9.6 6.4-19.2 9.6-28.8 12.8-64 28.8-80 54.4-80 64s19.2 41.6 108.8 76.8c41.6 16 92.8 28.8 150.4 38.4 60.8 6.4 121.6 12.8 188.8 12.8s128-3.2 188.8-12.8c57.6-9.6 108.8-22.4 150.4-38.4 89.6-35.2 108.8-67.2 108.8-76.8s-16-35.2-80-64z" />
<glyph unicode="&#xe962;" glyph-name="download" d="M1004.8 256h-89.6c-9.6 0-19.2-9.6-19.2-19.2v-89.6c0-9.6-9.6-19.2-19.2-19.2h-729.6c-9.6 0-19.2 9.6-19.2 19.2v89.6c0 9.6-9.6 19.2-19.2 19.2h-89.6c-9.6 0-19.2-9.6-19.2-19.2v-217.6c0-9.6 9.6-19.2 19.2-19.2h985.6c9.6 0 19.2 9.6 19.2 19.2v217.6c0 9.6-9.6 19.2-19.2 19.2zM572.8 873.6v-342.4h131.2c22.4 0 32-25.6 16-41.6l-195.2-195.2c-9.6-9.6-25.6-9.6-32 0l-195.2 195.2c-16 16-3.2 41.6 16 41.6h134.4v342.4c0 12.8 12.8 22.4 25.6 22.4h80c9.6 0 19.2-9.6 19.2-22.4z" />
<glyph unicode="&#xe963;" glyph-name="drag" d="M352 800h128v-128h-128v128zM544 800h128v-128h-128v128zM352 608h128v-128h-128v128zM544 608h128v-128h-128v128zM352 416h128v-128h-128v128zM544 416h128v-128h-128v128zM352 224h128v-128h-128v128zM544 224h128v-128h-128v128z" />
<glyph unicode="&#xe964;" glyph-name="drag-horiz" d="M256 416h128v-128h-128v128zM256 608h128v-128h-128v128zM448 416h128v-128h-128v128zM448 608h128v-128h-128v128zM640 416h128v-128h-128v128zM640 608h128v-128h-128v128z" />
<glyph unicode="&#xe965;" glyph-name="drag-wide" d="M256 800h128v-128h-128v128zM448 800h128v-128h-128v128zM640 800h128v-128h-128v128zM256 608h128v-128h-128v128zM448 608h128v-128h-128v128zM640 608h128v-128h-128v128zM256 416h128v-128h-128v128zM448 416h128v-128h-128v128zM640 416h128v-128h-128v128zM256 224h128v-128h-128v128zM448 224h128v-128h-128v128zM640 224h128v-128h-128v128z" />
<glyph unicode="&#xe966;" glyph-name="ellipsis" d="M608 448c0-53.019-42.981-96-96-96s-96 42.981-96 96c0 53.019 42.981 96 96 96s96-42.981 96-96zM896 448c0-53.019-42.981-96-96-96s-96 42.981-96 96c0 53.019 42.981 96 96 96s96-42.981 96-96zM320 448c0-53.019-42.981-96-96-96s-96 42.981-96 96c0 53.019 42.981 96 96 96s96-42.981 96-96z" />
<glyph unicode="&#xe967;" glyph-name="ellipsis-light" d="M576 448c0-35.346-28.654-64-64-64s-64 28.654-64 64c0 35.346 28.654 64 64 64s64-28.654 64-64zM816 448c0-35.346-28.654-64-64-64s-64 28.654-64 64c0 35.346 28.654 64 64 64s64-28.654 64-64zM336 448c0-35.346-28.654-64-64-64s-64 28.654-64 64c0 35.346 28.654 64 64 64s64-28.654 64-64z" />
<glyph unicode="&#xe968;" glyph-name="ellipsis-solid" d="M320 448c0-70.692-57.308-128-128-128s-128 57.308-128 128c0 70.692 57.308 128 128 128s128-57.308 128-128zM640 448c0-70.692-57.308-128-128-128s-128 57.308-128 128c0 70.692 57.308 128 128 128s128-57.308 128-128zM960 448c0-70.692-57.308-128-128-128s-128 57.308-128 128c0 70.692 57.308 128 128 128s128-57.308 128-128z" />
<glyph unicode="&#xe969;" glyph-name="enlarge" d="M947.2 960h-214.4c-67.2 0-102.4-80-54.4-128l80-80-246.4-252.8-249.6 249.6 80 83.2c48 48 12.8 128-54.4 128h-211.2c-41.6 0-76.8-35.2-76.8-76.8v-214.4c0-67.2 80-102.4 128-54.4l80 83.2 249.6-249.6-249.6-249.6-80 80c-48 48-128 12.8-128-54.4v-214.4c0-38.4 35.2-73.6 76.8-73.6h214.4c67.2 0 102.4 80 54.4 128l-80 83.2 249.6 249.6 249.6-249.6-83.2-83.2c-48-48-12.8-128 54.4-128h214.4c41.6 0 76.8 35.2 76.8 76.8v214.4c0 67.2-80 99.2-128 54.4l-80-83.2-256 249.6 249.6 249.6 80-83.2c48-48 128-12.8 128 54.4v214.4c3.2 41.6-32 76.8-73.6 76.8zM83.2 662.4c-6.4-6.4-16 0-16 6.4v214.4c0 6.4 3.2 9.6 9.6 9.6h214.4c9.6 0 12.8-9.6 6.4-16l-214.4-214.4zM297.6 19.2c6.4-6.4 3.2-16-6.4-16h-214.4c-6.4 0-9.6 3.2-9.6 9.6v214.4c0 9.6 9.6 12.8 16 6.4l214.4-214.4zM940.8 233.6c6.4 6.4 16 3.2 16-6.4v-214.4c0-6.4-3.2-9.6-9.6-9.6h-214.4c-9.6 0-12.8 9.6-6.4 16l214.4 214.4zM956.8 668.8c0-9.6-9.6-12.8-16-6.4l-214.4 214.4c-6.4 6.4-3.2 16 6.4 16h214.4c6.4 0 9.6-3.2 9.6-9.6v-214.4z" />
<glyph unicode="&#xe96a;" glyph-name="enlarge-solid" d="M844.8 524.8c9.6-9.6 22.4-12.8 35.2-12.8h28.8c12.8 0 25.6 3.2 35.2 12.8 6.4 6.4 12.8 19.2 12.8 35.2v272c0 16-6.4 32-19.2 44.8s-25.6 19.2-41.6 19.2h-272c-12.8 0-25.6-6.4-35.2-12.8-9.6-12.8-12.8-22.4-12.8-35.2v-28.8c0-12.8 3.2-25.6 12.8-35.2s22.4-12.8 35.2-12.8l131.2 3.2-243.2-246.4-246.4 246.4 131.2-3.2c12.8-3.2 25.6 3.2 35.2 12.8s16 19.2 16 35.2v28.8c0 12.8-6.4 25.6-12.8 35.2-12.8 6.4-22.4 12.8-35.2 12.8h-272c-19.2 0-35.2-6.4-44.8-19.2s-19.2-28.8-19.2-44.8v-272c0-12.8 3.2-25.6 12.8-35.2s22.4-12.8 35.2-12.8h28.8c12.8 0 25.6 3.2 35.2 12.8s12.8 22.4 12.8 35.2l-3.2 134.4 246.4-246.4-246.4-246.4 3.2 131.2c0 12.8-3.2 25.6-12.8 35.2s-22.4 16-35.2 16h-28.8c-12.8 0-25.6-6.4-35.2-12.8-9.6-12.8-12.8-22.4-12.8-35.2v-272c0-19.2 6.4-35.2 19.2-44.8s25.6-19.2 44.8-19.2h272c12.8 0 25.6 3.2 35.2 12.8 6.4 6.4 12.8 19.2 12.8 35.2v28.8c0 12.8-6.4 25.6-16 35.2s-22.4 12.8-35.2 12.8l-131.2-3.2 246.4 246.4 246.4-246.4-131.2 3.2c-12.8 0-25.6-3.2-35.2-12.8s-12.8-22.4-12.8-35.2v-28.8c0-12.8 3.2-25.6 12.8-35.2 6.4-9.6 19.2-12.8 35.2-12.8h268.8c16 0 32 6.4 44.8 19.2s19.2 25.6 19.2 44.8v272c0 12.8-6.4 25.6-12.8 35.2-9.6 6.4-22.4 12.8-35.2 12.8h-28.8c-12.8 0-25.6-6.4-35.2-16s-12.8-22.4-12.8-35.2l3.2-131.2-246.4 246.4 246.4 246.4-3.2-131.2c-3.2-16 0-25.6 9.6-38.4z" />
<glyph unicode="&#xe96b;" glyph-name="enter" d="M128 288v-256c0-35.2 28.8-64 64-64h704c35.2 0 64 28.8 64 64v832c0 35.2-28.8 64-64 64h-704c-35.2 0-64-28.8-64-64v-256h128v192h576v-704h-576v192h-128zM54.4 512h342.4v131.2c0 22.4 25.6 32 41.6 16l195.2-195.2c9.6-9.6 9.6-25.6 0-32l-195.2-195.2c-16-16-41.6-3.2-41.6 16v131.2h-342.4c-12.8 0-22.4 9.6-22.4 22.4v80c0 16 9.6 25.6 22.4 25.6z" />
<glyph unicode="&#xe96c;" glyph-name="envelope" d="M64 176c0-44.8 35.2-80 80-80h736c44.8 0 80 35.2 80 80v544c0 44.8-35.2 80-80 80h-736c-44.8 0-80-35.2-80-80v-544zM880 160h-736c-9.6 0-16 6.4-16 16v384c9.6-12.8 22.4-22.4 35.2-32 70.4-54.4 144-112 214.4-169.6 38.4-32 83.2-70.4 134.4-70.4v0c51.2 0 99.2 38.4 134.4 70.4 70.4 57.6 140.8 115.2 214.4 169.6 12.8 9.6 25.6 22.4 35.2 32v-384c0-9.6-6.4-16-16-16zM144 736h736c19.2 0 16-22.4 16-35.2v0c0-41.6-41.6-99.2-73.6-124.8-67.2-51.2-134.4-105.6-201.6-160-25.6-19.2-73.6-64-108.8-64v0c-35.2 0-83.2 44.8-108.8 67.2-67.2 54.4-134.4 105.6-201.6 160-44.8 35.2-73.6 83.2-73.6 140.8 0 9.6 6.4 16 16 16z" />
<glyph unicode="&#xe96d;" glyph-name="envelope-open" d="M800 438.4c-6.4 6.4-16 9.6-22.4 3.2-35.2-25.6-83.2-64-156.8-121.6-25.6-19.2-73.6-64-108.8-64v0c-35.2 0-83.2 48-108.8 64-70.4 54.4-118.4 92.8-153.6 118.4-6.4 6.4-16 3.2-22.4-3.2l-19.2-25.6c-6.4-6.4-3.2-16 3.2-22.4 48-38.4 160-124.8 166.4-128 35.2-28.8 83.2-67.2 134.4-67.2v0c51.2 0 99.2 38.4 134.4 67.2 6.4 3.2 121.6 92.8 169.6 131.2 6.4 6.4 6.4 16 3.2 22.4l-19.2 25.6zM960 80v464c0 19.2-6.4 35.2-19.2 48-99.2 92.8-224 182.4-291.2 236.8-35.2 28.8-86.4 67.2-137.6 67.2v0c-51.2 0-99.2-38.4-134.4-70.4-73.6-57.6-192-140.8-294.4-233.6-12.8-12.8-19.2-28.8-19.2-48v-464c0-44.8 35.2-80 80-80h736c44.8 0 80 35.2 80 80zM144 64c-9.6 0-16 6.4-16 16v464c51.2 48 41.6 41.6 275.2 220.8 22.4 19.2 73.6 67.2 108.8 67.2v0c35.2 0 83.2-48 108.8-67.2 230.4-179.2 224-176 275.2-220.8v-464c0-9.6-6.4-16-16-16h-736z" />
<glyph unicode="&#xe96e;" glyph-name="envelope-open-solid" d="M960 569.6v-489.6c0-44.8-35.2-80-80-80h-736c-44.8 0-80 35.2-80 80v489.6c0 3.2 3.2 9.6 6.4 12.8 51.2 44.8 54.4 51.2 313.6 243.2 32 19.2 86.4 70.4 128 70.4s96-51.2 128-73.6c262.4-192 262.4-195.2 313.6-243.2 3.2 0 6.4-6.4 6.4-9.6zM678.4 275.2c76.8 57.6 131.2 96 172.8 124.8 6.4 6.4 9.6 16 3.2 22.4l-19.2 25.6c-6.4 6.4-16 9.6-22.4 3.2-38.4-28.8-92.8-70.4-172.8-124.8-32-22.4-86.4-73.6-128-73.6s-96 51.2-128 73.6c-76.8 57.6-131.2 96-172.8 124.8-6.4 6.4-16 3.2-22.4-3.2l-19.2-25.6c-6.4-6.4-3.2-16 3.2-22.4 38.4-28.8 96-70.4 172.8-124.8 38.4-25.6 102.4-83.2 166.4-83.2 67.2 0 128 57.6 166.4 83.2z" />
<glyph unicode="&#xe96f;" glyph-name="envelope-solid" d="M880 800h-736c-54.4 0-80-41.6-80-89.6 0-44.8 51.2-102.4 86.4-124.8 76.8-54.4 156.8-108.8 233.6-163.2 32-22.4 86.4-67.2 128-67.2v0c41.6 0 96 44.8 128 67.2 76.8 54.4 156.8 108.8 233.6 163.2 44.8 32 86.4 80 86.4 137.6v0c0 41.6-35.2 76.8-80 76.8zM662.4 358.4c-41.6-32-92.8-70.4-147.2-70.4v0c-54.4 0-105.6 38.4-147.2 70.4-80 60.8-166.4 115.2-249.6 172.8-22.4 9.6-38.4 25.6-54.4 41.6v-396.8c0-44.8 35.2-80 80-80h736c44.8 0 80 35.2 80 80v396.8c-16-16-32-32-51.2-44.8-83.2-54.4-166.4-112-246.4-169.6zM960 572.8v0 0z" />
<glyph unicode="&#xe970;" glyph-name="exit" d="M70.4 124.8l361.6-179.2c6.4-3.2 16 3.2 16 9.6v163.2c0 6.4 6.4 12.8 12.8 12.8h297.6c6.4 0 12.8 6.4 12.8 12.8v233.6c0 6.4-6.4 12.8-12.8 12.8h-41.6c-6.4 0-12.8-6.4-12.8-12.8v-169.6c0-6.4-6.4-12.8-12.8-12.8h-233.6c-6.4 0-12.8 6.4-12.8 12.8v553.6c0 3.2-3.2 9.6-6.4 9.6l-201.6 102.4c-41.6 22.4-22.4 22.4 3.2 22.4h451.2c6.4 0 12.8-6.4 12.8-12.8v-233.6c0-6.4 6.4-12.8 12.8-12.8h41.6c6.4 0 12.8 6.4 12.8 12.8v297.6c-3.2 6.4-9.6 12.8-16 12.8h-678.4c-6.4 0-12.8-6.4-12.8-12.8v-812.8c0-3.2 3.2-6.4 6.4-9.6zM563.2 553.6h262.4v99.2c0 16 19.2 25.6 32 12.8l147.2-147.2c6.4-6.4 6.4-19.2 0-25.6l-147.2-147.2c-12.8-12.8-32-3.2-32 12.8v99.2h-262.4c-9.6 0-19.2 9.6-19.2 19.2v60.8c0 6.4 9.6 16 19.2 16z" />
<glyph unicode="&#xe971;" glyph-name="export" d="M848 672l-252.8 192v-124.8c-80 0-140.8-12.8-179.2-44.8-38.4-35.2-67.2-67.2-89.6-108.8-22.4-38.4-32-89.6-38.4-153.6 44.8 73.6 83.2 118.4 121.6 140.8s102.4 35.2 185.6 35.2v-140.8l252.8 204.8zM64 547.2v-368c0-22.4 6.4-44.8 22.4-60.8s38.4-22.4 60.8-22.4h729.6c28.8 0 44.8 6.4 60.8 22.4s22.4 38.4 22.4 60.8v368h-112v-339.2h-672v339.2h-112z" />
<glyph unicode="&#xe972;" glyph-name="eye" d="M512 128c224 0 416 131.2 512 320-96 188.8-288 320-512 320s-416-131.2-512-320c96-188.8 288-320 512-320zM416 646.4c54.4 0 96-41.6 96-96s-41.6-96-96-96-96 41.6-96 96 41.6 96 96 96zM259.2 598.4c3.2 3.2 6.4 6.4 12.8 6.4-9.6-25.6-16-57.6-16-86.4 0-140.8 115.2-256 256-256s256 115.2 256 256c0 32-6.4 60.8-16 86.4 3.2-3.2 6.4-6.4 12.8-6.4 60.8-38.4 112-89.6 150.4-150.4-38.4-60.8-89.6-112-150.4-150.4-76.8-48-163.2-73.6-252.8-73.6s-176 25.6-252.8 73.6c-60.8 38.4-112 89.6-150.4 150.4 38.4 60.8 89.6 112 150.4 150.4z" />
<glyph unicode="&#xe973;" glyph-name="eye-blocked" d="M838.4 630.4l-70.4-70.4c57.6-38.4 105.6-86.4 144-147.2-38.4-60.8-89.6-112-150.4-150.4-73.6-44.8-160-70.4-249.6-70.4-35.2 0-67.2 3.2-102.4 9.6l-76.8-76.8c57.6-19.2 115.2-28.8 179.2-28.8 224 0 416 131.2 512 320-44.8 86.4-105.6 160-185.6 214.4zM768 486.4c0 22.4-3.2 44.8-9.6 67.2l-313.6-313.6c22.4-6.4 41.6-9.6 67.2-9.6 140.8 0 256 115.2 256 256zM960 873.6v54.4h-54.4l-220.8-220.8c-54.4 19.2-112 28.8-172.8 28.8-224 0-416-131.2-512-320 41.6-86.4 105.6-156.8 182.4-214.4l-182.4-179.2v-54.4h54.4l905.6 905.6zM416 614.4v0c48 0 86.4-35.2 96-80l-108.8-108.8c-44.8 6.4-80 48-80 96-3.2 48 38.4 92.8 92.8 92.8zM108.8 416c38.4 60.8 89.6 112 150.4 150.4 3.2 3.2 6.4 6.4 12.8 6.4-9.6-25.6-16-57.6-16-86.4 0-57.6 19.2-112 51.2-156.8l-57.6-57.6c-54.4 38.4-102.4 86.4-140.8 144z" />
<glyph unicode="&#xe974;" glyph-name="eye-solid" d="M640 448c0-70.692-57.308-128-128-128s-128 57.308-128 128c0 70.692 57.308 128 128 128s128-57.308 128-128zM512 160c256 0 512 224 512 288s-256 288-512 288-512-224-512-288 256-288 512-288zM512 640c105.6 0 192-86.4 192-192s-86.4-192-192-192-192 86.4-192 192 86.4 192 192 192z" />
<glyph unicode="&#xe975;" glyph-name="eye-solid-blocked" d="M153.6-9.6l304 355.2c16-9.6 35.2-12.8 57.6-12.8v0c70.4 0 128 57.6 128 128 0 28.8-9.6 51.2-22.4 73.6l304 355.2-54.4 38.4-304-355.2c-16 9.6-35.2 12.8-57.6 12.8-70.4 0-128-57.6-128-128 0-28.8 9.6-51.2 22.4-73.6l-300.8-352 51.2-41.6zM809.6 659.2v0l-118.4-137.6c6.4-19.2 9.6-41.6 9.6-64 0-105.6-86.4-192-192-192-12.8 0-22.4 0-35.2 3.2l-73.6-86.4c35.2-9.6 73.6-12.8 108.8-12.8 256 0 512 224 512 288 3.2 38.4-86.4 131.2-211.2 201.6zM214.4 259.2l118.4 137.6c-6.4 19.2-9.6 41.6-9.6 64 0 105.6 86.4 192 192 192 12.8 0 22.4 0 35.2-3.2l70.4 86.4c-35.2 9.6-73.6 12.8-108.8 12.8-256 0-512-224-512-288 0-38.4 89.6-131.2 214.4-201.6z" />
<glyph unicode="&#xe976;" glyph-name="file" d="M700.8 931.2c-19.2 19.2-44.8 28.8-67.2 28.8h-409.6c-54.4 0-96-41.6-96-96v-832c0-54.4 41.6-96 96-96h576c54.4 0 96 41.6 96 96v665.6c0 25.6-9.6 51.2-28.8 67.2l-166.4 166.4zM640 896c6.4 0 9.6-3.2 16-9.6l166.4-166.4c3.2-6.4 6.4-9.6 9.6-16h-192v192zM832 32c0-19.2-16-32-32-32h-576c-16 0-32 12.8-32 32v832c0 16 16 32 32 32h352v-208c0-25.6 22.4-48 48-48h208v-608zM300.8 499.2h441.6v-70.4h-441.6v70.4zM300.8 371.2h441.6v-70.4h-441.6v70.4zM300.8 243.2h441.6v-70.4h-441.6v70.4z" />
<glyph unicode="&#xe977;" glyph-name="file-blank-solid" d="M652.8 960h-12.8v-256h256v12.8c0 12.8-6.4 25.6-12.8 35.2l-195.2 195.2c-12.8 6.4-22.4 12.8-35.2 12.8zM128-16c0-12.8 3.2-25.6 12.8-35.2s22.4-12.8 35.2-12.8h672c12.8 0 25.6 3.2 35.2 12.8 6.4 6.4 12.8 19.2 12.8 35.2v656h-272c-12.8 0-25.6 3.2-35.2 12.8s-12.8 22.4-12.8 35.2v272h-400c-12.8 0-25.6-6.4-35.2-12.8-9.6-12.8-12.8-22.4-12.8-35.2v-928z" />
<glyph unicode="&#xe978;" glyph-name="file-check" d="M428.8 153.6c9.6-9.6 25.6-9.6 35.2 0l268.8 268.8c9.6 9.6 9.6 25.6 0 35.2l-16 16c-9.6 9.6-25.6 9.6-35.2 0l-236.8-233.6-102.4 102.4c-9.6 9.6-25.6 9.6-35.2 0l-16-16c-9.6-9.6-9.6-25.6 0-35.2l137.6-137.6zM224-64h576c54.4 0 96 41.6 96 96v665.6c0 25.6-9.6 51.2-28.8 67.2l-166.4 166.4c-19.2 19.2-41.6 28.8-67.2 28.8h-409.6c-54.4 0-96-41.6-96-96v-832c0-54.4 41.6-96 96-96zM640 896c6.4 0 9.6-3.2 16-9.6l166.4-166.4c3.2-6.4 6.4-9.6 9.6-16h-192v192zM192 864c0 19.2 12.8 32 32 32h352v-208c0-25.6 22.4-48 48-48h208v-608c0-19.2-12.8-32-32-32h-576c-19.2 0-32 12.8-32 32v832z" />
<glyph unicode="&#xe979;" glyph-name="file-check-solid" d="M176 960c-25.6 0-48-22.4-48-48v-928c0-25.6 22.4-48 48-48h672c25.6 0 48 22.4 48 48v656h-272c-25.6 0-48 22.4-48 48v272h-400zM665.6 476.8c9.6 9.6 25.6 9.6 35.2 0l57.6-57.6c9.6-9.6 9.6-25.6 0-35.2l-284.8-284.8c-9.6-9.6-25.6-9.6-35.2 0l-166.4 166.4c-9.6 9.6-9.6 25.6 0 35.2l57.6 57.6c9.6 9.6 25.6 9.6 35.2 0l92.8-92.8 208 211.2zM896 716.8c0 12.8-6.4 25.6-12.8 35.2l-195.2 195.2c-9.6 6.4-22.4 12.8-35.2 12.8h-12.8v-256h256v12.8z" />
<glyph unicode="&#xe97a;" glyph-name="file-css" d="M128 32c0-54.4 41.6-96 96-96h576c54.4 0 96 41.6 96 96v665.6c0 25.6-9.6 51.2-28.8 67.2l-166.4 166.4c-19.2 19.2-44.8 28.8-67.2 28.8h-409.6c-54.4 0-96-41.6-96-96v-832zM640 896c6.4 0 9.6-3.2 16-9.6l166.4-166.4c3.2-6.4 6.4-9.6 9.6-16h-192v192zM192 864c0 16 16 32 32 32h352v-208c0-25.6 22.4-48 48-48h208v-608c0-19.2-16-32-32-32h-576c-16 0-32 12.8-32 32v832zM345.6 275.2v-76.8c0-54.4 51.2-102.4 112-102.4v51.2c-16 0-28.8 6.4-38.4 16s-16 22.4-16 35.2v102.4c0 12.8-12.8 25.6-28.8 25.6 16 0 28.8 12.8 28.8 25.6v102.4c0 12.8 6.4 25.6 16 35.2s25.6 16 38.4 16v51.2c-60.8 0-112-44.8-112-102.4v-76.8c0-12.8-12.8-25.6-28.8-25.6h-28.8v-51.2h28.8c16 0 28.8-12.8 28.8-25.6zM688 198.4v76.8c0 12.8 12.8 25.6 28.8 25.6h28.8v51.2h-28.8c-16 0-28.8 12.8-28.8 25.6v76.8c0 54.4-51.2 102.4-112 102.4v-51.2c16 0 28.8-6.4 38.4-16s16-22.4 16-35.2v-102.4c0-12.8 12.8-25.6 28.8-25.6-16 0-28.8-9.6-28.8-25.6v-102.4c0-12.8-6.4-25.6-16-35.2s-25.6-16-38.4-16v-51.2c64 3.2 112 48 112 102.4z" />
<glyph unicode="&#xe97b;" glyph-name="file-download-solid" d="M896 716.8c0 12.8-6.4 25.6-12.8 35.2l-195.2 195.2c-9.6 6.4-22.4 12.8-35.2 12.8h-12.8v-256h256v12.8zM176 960c-25.6 0-48-22.4-48-48v-928c0-25.6 22.4-48 48-48h672c25.6 0 48 22.4 48 48v656h-272c-25.6 0-48 22.4-48 48v272h-400zM707.2 320c28.8 0 41.6-35.2 22.4-54.4l-192-192c-12.8-12.8-35.2-12.8-48 0l-192 192c-22.4 19.2-9.6 54.4 19.2 54.4h131.2v160c0 19.2 12.8 32 32 32h64c19.2 0 32-12.8 32-32v-160h131.2z" />
<glyph unicode="&#xe97c;" glyph-name="file-empty" d="M700.8 931.2c-19.2 19.2-41.6 28.8-67.2 28.8h-409.6c-25.6 0-48-9.6-67.2-28.8s-28.8-41.6-28.8-67.2v-832c0-25.6 9.6-48 28.8-67.2s41.6-28.8 67.2-28.8h576c25.6 0 48 9.6 67.2 28.8s28.8 41.6 28.8 67.2v665.6c0 25.6-9.6 48-28.8 67.2l-166.4 166.4zM832 32c0-9.6-3.2-16-9.6-22.4s-12.8-9.6-22.4-9.6h-576c-9.6 0-16 3.2-25.6 9.6-3.2 6.4-6.4 12.8-6.4 22.4v832c0 9.6 3.2 16 6.4 22.4 9.6 6.4 16 9.6 25.6 9.6h352v-208c0-12.8 3.2-25.6 12.8-35.2s19.2-12.8 35.2-12.8h208v-608zM640 704v192c6.4-3.2 9.6-6.4 12.8-9.6l166.4-166.4c6.4-6.4 9.6-9.6 12.8-16h-192z" />
<glyph unicode="&#xe97d;" glyph-name="file-excel" d="M128 32c0-54.4 41.6-96 96-96h576c54.4 0 96 41.6 96 96v665.6c0 25.6-9.6 51.2-28.8 67.2l-166.4 166.4c-19.2 19.2-44.8 28.8-67.2 28.8h-409.6c-54.4 0-96-41.6-96-96v-832zM640 896c6.4 0 9.6-3.2 16-9.6l166.4-166.4c3.2-6.4 6.4-9.6 9.6-16h-192v192zM192 864c0 16 16 32 32 32h352v-208c0-25.6 22.4-48 48-48h208v-608c0-19.2-16-32-32-32h-576c-16 0-32 12.8-32 32v832zM512 108.8v76.8h-51.2l41.6 60.8 92.8-137.6h118.4l-153.6 224 134.4 201.6h-112l-80-115.2-80 115.2h-115.2l137.6-201.6-153.6-224z" />
<glyph unicode="&#xe97e;" glyph-name="file-pdf" d="M867.2 764.8l-166.4 166.4c-19.2 19.2-44.8 28.8-67.2 28.8h-409.6c-54.4 0-96-41.6-96-96v-832c0-54.4 41.6-96 96-96h576c54.4 0 96 41.6 96 96v665.6c0 22.4-9.6 48-28.8 67.2zM793.6 704h-153.6v153.6l153.6-153.6zM224 32v832h320v-208c0-25.6 22.4-48 48-48h208v-576h-576zM723.2 320c-25.6 22.4-92.8 16-128 12.8-35.2 22.4-57.6 51.2-73.6 92.8 6.4 32 19.2 80 9.6 112-9.6 51.2-76.8 48-86.4 12.8-9.6-32 0-76.8 12.8-134.4-19.2-48-51.2-112-70.4-147.2-35.2-22.4-89.6-54.4-99.2-96-6.4-32 51.2-108.8 153.6 60.8 44.8 16 92.8 32 137.6 41.6 38.4-19.2 83.2-35.2 112-35.2 48 3.2 54.4 57.6 32 80zM329.6 163.2c9.6 28.8 48 57.6 60.8 70.4-38.4-60.8-60.8-70.4-60.8-70.4zM492.8 544c16 0 12.8-64 3.2-80-9.6 25.6-9.6 80-3.2 80zM441.6 272c19.2 35.2 35.2 73.6 48 108.8 16-28.8 38.4-54.4 60.8-70.4-38.4-9.6-76.8-25.6-108.8-38.4zM707.2 281.6c0 0-9.6-12.8-73.6 16 67.2 6.4 80-9.6 73.6-16z" />
<glyph unicode="&#xe97f;" glyph-name="file-plus" d="M224-64h576c54.4 0 96 41.6 96 96v665.6c0 25.6-9.6 51.2-28.8 67.2l-166.4 166.4c-19.2 19.2-44.8 28.8-67.2 28.8h-409.6c-54.4 0-96-41.6-96-96v-832c0-54.4 41.6-96 96-96zM640 896c6.4 0 9.6-3.2 16-9.6l166.4-166.4c3.2-6.4 6.4-9.6 9.6-16h-192v192zM192 864c0 16 16 32 32 32h352v-208c0-25.6 22.4-48 48-48h208v-608c0-19.2-16-32-32-32h-576c-16 0-32 12.8-32 32v832zM345.6 320h134.4v-134.4c0-12.8 9.6-25.6 25.6-25.6h16c12.8 0 25.6 9.6 25.6 25.6v134.4h134.4c12.8 0 25.6 9.6 25.6 22.4v16c0 12.8-9.6 22.4-25.6 22.4h-137.6v134.4c0 12.8-9.6 25.6-25.6 25.6h-16c-12.8 0-25.6-9.6-25.6-25.6v-131.2h-134.4c-12.8 0-25.6-9.6-25.6-22.4v-16c3.2-16 12.8-25.6 28.8-25.6z" />
<glyph unicode="&#xe980;" glyph-name="file-remove" d="M512 396.8l-96 96c-9.6 9.6-25.6 9.6-35.2 0l-12.8-12.8c-9.6-9.6-9.6-25.6 0-35.2l96-96-96-96c-9.6-9.6-9.6-25.6 0-35.2l12.8-12.8c9.6-9.6 25.6-9.6 35.2 0l96 96 96-96c9.6-9.6 25.6-9.6 35.2 0l12.8 12.8c9.6 9.6 9.6 25.6 0 35.2l-96 96 96 96c9.6 9.6 9.6 25.6 0 35.2l-12.8 12.8c-9.6 9.6-25.6 9.6-35.2 0l-96-96zM633.6 960h-409.6c-54.4 0-96-41.6-96-96v-832c0-54.4 41.6-96 96-96h576c54.4 0 96 41.6 96 96v665.6c0 25.6-9.6 51.2-28.8 67.2l-166.4 166.4c-19.2 19.2-44.8 28.8-67.2 28.8zM832 32c0-19.2-16-32-32-32h-576c-16 0-32 12.8-32 32v832c0 16 16 32 32 32h352v-208c0-25.6 22.4-48 48-48h208v-608zM832 704h-192v192c6.4 0 9.6-3.2 16-9.6l166.4-166.4c3.2-6.4 6.4-9.6 9.6-16z" />
<glyph unicode="&#xe981;" glyph-name="file-remove-solid" d="M896 716.8c0 12.8-6.4 25.6-12.8 35.2l-195.2 195.2c-9.6 6.4-22.4 12.8-35.2 12.8h-12.8v-256h256v12.8zM176 960c-25.6 0-48-22.4-48-48v-928c0-25.6 22.4-48 48-48h672c25.6 0 48 22.4 48 48v656h-272c-25.6 0-48 22.4-48 48v272h-400zM608 505.6c9.6 9.6 25.6 9.6 35.2 0l57.6-57.6c9.6-9.6 9.6-25.6 0-35.2l-96-96 96-96c9.6-9.6 9.6-25.6 0-35.2l-57.6-57.6c-9.6-9.6-25.6-9.6-35.2 0l-96 96-96-96c-9.6-9.6-25.6-9.6-35.2 0l-57.6 57.6c-9.6 9.6-9.6 25.6 0 35.2l96 96-96 96c-9.6 9.6-9.6 25.6 0 35.2l57.6 57.6c9.6 9.6 25.6 9.6 35.2 0l96-96 96 96z" />
<glyph unicode="&#xe982;" glyph-name="file-solid" d="M684.8 947.2c-6.4 6.4-19.2 12.8-32 12.8h-12.8v-256h256v12.8c0 12.8-6.4 25.6-12.8 35.2l-198.4 195.2zM576 688v272h-400c-25.6 0-48-22.4-48-48v-928c0-25.6 22.4-48 48-48h672c25.6 0 48 22.4 48 48v656h-272c-25.6 0-48 22.4-48 48zM729.6 182.4h-441.6v70.4h441.6v-70.4zM729.6 310.4h-441.6v70.4h441.6v-70.4zM729.6 438.4h-441.6v70.4h441.6v-70.4z" />
<glyph unicode="&#xe983;" glyph-name="file-upload-solid" d="M176 960c-25.6 0-48-22.4-48-48v-928c0-25.6 22.4-48 48-48h672c25.6 0 48 22.4 48 48v656h-272c-25.6 0-48 22.4-48 48v272h-400zM729.6 310.4c19.2-19.2 6.4-54.4-22.4-54.4h-131.2v-160c0-19.2-12.8-32-32-32h-64c-19.2 0-32 12.8-32 32v160h-131.2c-28.8 0-41.6 35.2-22.4 54.4l192 192c12.8 12.8 35.2 12.8 48 0l195.2-192zM684.8 947.2c-6.4 6.4-19.2 12.8-32 12.8h-12.8v-256h256v12.8c0 12.8-6.4 25.6-12.8 35.2l-198.4 195.2z" />
<glyph unicode="&#xe984;" glyph-name="file-zip" d="M867.2 764.8l-166.4 166.4c-19.2 19.2-41.6 28.8-67.2 28.8h-409.6c-54.4 0-96-41.6-96-96v-832c0-54.4 41.6-96 96-96h576c54.4 0 96 41.6 96 96v665.6c0 25.6-9.6 48-28.8 67.2zM640 857.6l153.6-153.6h-153.6v153.6zM800 32h-576v832h160v-32h64v32h96v-208c0-25.6 22.4-48 48-48h208v-576zM512 768h-64v64h64v-64zM448 768v-64h-64v64h64zM448 640v-64h-64v64h64zM512 640h-64v64h64v-64zM515.2 428.8c-3.2 12.8-12.8 19.2-22.4 19.2h-44.8v64h-64v-64l-38.4-195.2c-12.8-64 35.2-124.8 102.4-124.8s115.2 60.8 102.4 124.8l-35.2 176zM448 179.2c-35.2 0-64 25.6-64 54.4s28.8 54.4 64 54.4 64-25.6 64-54.4-28.8-54.4-64-54.4zM512 512h-64v64h64v-64z" />
<glyph unicode="&#xe985;" glyph-name="filing-cabinet" d="M345.6 588.8h28.8c16 0 28.8 12.8 28.8 28.8v12.8h224v-12.8c0-16 12.8-28.8 28.8-28.8h28.8c16 0 28.8 12.8 28.8 28.8v41.6c0 32-25.6 57.6-57.6 57.6h-281.6c-32 0-57.6-25.6-57.6-57.6v-41.6c0-16 12.8-28.8 28.8-28.8zM876.8 896h-729.6c-44.8 0-83.2-38.4-83.2-83.2v-729.6c0-44.8 38.4-83.2 83.2-83.2h729.6c44.8 0 83.2 38.4 83.2 83.2v729.6c0 44.8-38.4 83.2-83.2 83.2zM876.8 83.2h-729.6v323.2h729.6v-323.2zM876.8 489.6h-729.6v323.2h729.6v-323.2zM345.6 182.4h28.8c16 0 28.8 12.8 28.8 28.8v12.8h224v-12.8c0-16 12.8-28.8 28.8-28.8h28.8c16 0 28.8 12.8 28.8 28.8v41.6c0 32-25.6 57.6-57.6 57.6h-281.6c-32 0-57.6-25.6-57.6-57.6v-41.6c0-16 12.8-28.8 28.8-28.8z" />
<glyph unicode="&#xe986;" glyph-name="filing-cabinet-solid" d="M64 838.4v-336h896v336c0 32-25.6 57.6-57.6 57.6h-780.8c-32 0-57.6-25.6-57.6-57.6zM345.6 700.8c0 16 12.8 28.8 28.8 28.8h281.6c16 0 28.8-12.8 28.8-28.8v-70.4c0-6.4-6.4-12.8-12.8-12.8h-28.8c-6.4 0-12.8 6.4-12.8 12.8v41.6h-224v-41.6c0-6.4-6.4-12.8-12.8-12.8h-28.8c-6.4 0-12.8 6.4-12.8 12.8v70.4zM64 57.6c0-32 25.6-57.6 57.6-57.6h784c32 0 57.6 25.6 57.6 57.6v390.4h-899.2v-390.4zM345.6 252.8c0 16 12.8 28.8 28.8 28.8h281.6c16 0 28.8-12.8 28.8-28.8v-70.4c0-6.4-6.4-12.8-12.8-12.8h-28.8c-6.4 0-12.8 6.4-12.8 12.8v41.6h-224v-41.6c0-6.4-6.4-12.8-12.8-12.8h-28.8c-6.4 0-12.8 6.4-12.8 12.8v70.4z" />
<glyph unicode="&#xe987;" glyph-name="filter" d="M422.4 115.2l96-70.4c48-32 115.2-3.2 115.2 57.6v332.8l243.2 243.2c44.8 44.8 12.8 121.6-54.4 121.6h-620.8c-64 0-96-76.8-51.2-121.6l243.2-243.2v-259.2c-3.2-22.4 9.6-44.8 28.8-60.8zM198.4 729.6h624l-262.4-262.4v-358.4l-96 70.4v288l-265.6 262.4z" />
<glyph unicode="&#xe988;" glyph-name="filter-solid" d="M860.8 800h-697.6c-32 0-48-38.4-25.6-60.8l278.4-278.4v-310.4c0-12.8 6.4-22.4 16-28.8l121.6-83.2c22.4-16 57.6 0 57.6 28.8v393.6l278.4 278.4c19.2 22.4 3.2 60.8-28.8 60.8z" />
<glyph unicode="&#xe989;" glyph-name="flag" d="M662.4 777.6c-92.8 0-176 60.8-304 60.8-57.6 0-108.8-12.8-150.4-28.8 3.2 12.8 6.4 25.6 3.2 38.4-3.2 44.8-41.6 76.8-83.2 80-51.2 3.2-96-38.4-96-89.6 0-32 19.2-60.8 44.8-76.8v-761.6c0-16 12.8-28.8 28.8-28.8h28.8c16 0 28.8 12.8 28.8 28.8v156.8c70.4 32 134.4 54.4 240 54.4 92.8 0 176-60.8 304-60.8 108.8 0 192 41.6 240 73.6 25.6 16 41.6 44.8 41.6 76.8v448c0 64-67.2 108.8-124.8 83.2-64-28.8-134.4-54.4-201.6-54.4zM902.4 297.6c-41.6-28.8-115.2-60.8-192-60.8-112 0-192 60.8-304 60.8-80 0-179.2-19.2-240-44.8v435.2c41.6 28.8 115.2 60.8 192 60.8 112 0 192-60.8 304-60.8 80 0 179.2 32 240 60.8v-451.2z" />
<glyph unicode="&#xe98a;" glyph-name="flag-solid" d="M681.6 742.4c-102.4 0-185.6 64-313.6 64-48 3.2-89.6-6.4-131.2-22.4 6.4 16 9.6 32 9.6 44.8-3.2 54.4-48 96-102.4 99.2-60.8 3.2-112-44.8-112-105.6 0-35.2 19.2-67.2 44.8-86.4v-723.2c0-25.6 19.2-44.8 44.8-44.8h32c25.6 0 44.8 19.2 44.8 44.8v176c54.4 22.4 121.6 41.6 217.6 41.6 102.4 0 185.6-64 313.6-64 92.8 0 166.4 32 233.6 76.8 16 9.6 25.6 28.8 25.6 48v457.6c0 44.8-44.8 73.6-86.4 54.4-64-32-144-60.8-220.8-60.8z" />
<glyph unicode="&#xe98b;" glyph-name="folder" d="M928 704h-384l-128 128h-320c-28.8 0-51.2-9.6-67.2-28.8-22.4-19.2-28.8-41.6-28.8-67.2v-576c0-28.8 6.4-51.2 28.8-67.2 16-22.4 38.4-28.8 67.2-28.8h832c25.6 0 48 6.4 67.2 28.8 19.2 19.2 28.8 38.4 28.8 67.2v448c0 25.6-9.6 48-28.8 67.2s-41.6 28.8-67.2 28.8zM960 160c0-9.6-3.2-19.2-9.6-25.6s-16-6.4-22.4-6.4h-832c-9.6 0-19.2 3.2-25.6 6.4s-6.4 16-6.4 25.6v576c0 6.4 3.2 16 6.4 22.4s16 9.6 25.6 9.6h294.4l128-128h409.6c6.4 0 16-3.2 22.4-9.6s9.6-16 9.6-22.4v-448z" />
<glyph unicode="&#xe98c;" glyph-name="folder-open" horiz-adv-x="1280" d="M1184 486.4c-19.2 19.2-38.4 25.6-64 25.6h-96v96c0 25.6-9.6 48-28.8 67.2s-41.6 28.8-67.2 28.8h-320l-128 128h-320c-28.8 0-51.2-9.6-67.2-28.8-19.2-19.2-28.8-41.6-28.8-67.2v-576c0-28.8 9.6-51.2 28.8-67.2 16-22.4 38.4-28.8 67.2-28.8h771.2c28.8 0 54.4 6.4 76.8 19.2s44.8 35.2 60.8 57.6l134.4 224c12.8 19.2 16 41.6 12.8 67.2-6.4 22.4-16 41.6-32 54.4zM128 736c0 6.4 3.2 16 9.6 22.4s12.8 9.6 22.4 9.6h294.4l128-128h345.6c9.6 0 16-3.2 22.4-9.6s9.6-12.8 9.6-22.4v-96h-553.6c-28.8 0-57.6-6.4-80-22.4-25.6-12.8-44.8-32-57.6-57.6l-140.8-233.6v537.6zM1148.8 400l-137.6-227.2c-9.6-16-19.2-25.6-35.2-35.2-16-6.4-32-12.8-48-12.8h-774.4l163.2 275.2c9.6 12.8 19.2 25.6 35.2 35.2 12.8 6.4 28.8 12.8 48 12.8h720c12.8 0 19.2-6.4 25.6-16 6.4-12.8 6.4-22.4 3.2-32z" />
<glyph unicode="&#xe98d;" glyph-name="folder-open-solid" horiz-adv-x="1280" d="M928 704h-320l-128 128h-320c-28.8 0-51.2-9.6-67.2-28.8-22.4-19.2-28.8-41.6-28.8-67.2v-556.8l137.6 236.8c16 28.8 38.4 51.2 70.4 70.4 28.8 16 60.8 25.6 96 25.6h656v96c0 25.6-9.6 48-28.8 67.2s-41.6 28.8-67.2 28.8zM1168 448h-800c-25.6 0-44.8-6.4-64-19.2s-35.2-25.6-44.8-44.8l-147.2-249.6c-9.6-16-9.6-32 0-48s22.4-22.4 41.6-22.4h800c22.4 0 44.8 3.2 64 16s35.2 28.8 44.8 48l147.2 249.6c6.4 16 6.4 32 0 48-9.6 16-22.4 22.4-41.6 22.4z" />
<glyph unicode="&#xe98e;" glyph-name="folder-solid" d="M96 64h832c25.6 0 48 6.4 67.2 28.8 19.2 19.2 28.8 38.4 28.8 67.2v448c0 25.6-9.6 48-28.8 67.2s-41.6 28.8-67.2 28.8h-384l-128 128h-320c-28.8 0-51.2-9.6-67.2-28.8-22.4-19.2-28.8-41.6-28.8-67.2v-576c0-28.8 6.4-51.2 28.8-67.2 16-22.4 38.4-28.8 67.2-28.8z" />
<glyph unicode="&#xe98f;" glyph-name="atom-add" d="M896 192v128h-128v-128h-128v-128h128v-128h128v128h128v128h-128zM704 288c-9.6 0-16-3.2-25.6-3.2-35.2 0-80 6.4-131.2 22.4 6.4 35.2 12.8 70.4 12.8 108.8 32 22.4 60.8 44.8 86.4 67.2 19.2-19.2 35.2-35.2 51.2-54.4 12.8-16 22.4-32 32-44.8h48c-19.2 38.4-54.4 83.2-99.2 128 92.8 86.4 134.4 172.8 105.6 224-16 28.8-54.4 41.6-108.8 41.6v-41.6c38.4 0 64-9.6 70.4-22.4 6.4-9.6 3.2-28.8 0-38.4-6.4-22.4-25.6-51.2-48-80-16-19.2-32-35.2-51.2-54.4-25.6 22.4-54.4 44.8-86.4 67.2-3.2 38.4-6.4 73.6-12.8 108.8 48 12.8 92.8 19.2 131.2 19.2v41.6c0 0 0 0 0 0-38.4 0-86.4-6.4-137.6-22.4-32 124.8-83.2 204.8-144 204.8s-112-80-140.8-204.8c-51.2 16-99.2 22.4-137.6 22.4-54.4 0-92.8-12.8-108.8-41.6-28.8-51.2 16-137.6 105.6-224-92.8-86.4-134.4-172.8-105.6-224 16-28.8 54.4-41.6 108.8-41.6 38.4 0 86.4 6.4 137.6 22.4 28.8-121.6 83.2-204.8 140.8-204.8s112 80 140.8 204.8c51.2-16 99.2-22.4 137.6-22.4 9.6 0 19.2 0 25.6 0l3.2 41.6zM563.2 553.6c19.2-12.8 35.2-28.8 51.2-41.6-16-12.8-35.2-28.8-51.2-41.6 0 12.8 0 28.8 0 41.6s3.2 28.8 0 41.6zM118.4 288c-38.4 0-64 9.6-70.4 22.4-6.4 9.6-3.2 28.8 0 38.4 6.4 22.4 25.6 51.2 48 80 16 19.2 32 35.2 51.2 54.4 25.6-22.4 54.4-44.8 86.4-67.2 3.2-38.4 6.4-73.6 12.8-108.8-48-12.8-92.8-19.2-128-19.2v0zM230.4 470.4c-19.2 12.8-35.2 28.8-51.2 41.6 16 12.8 35.2 28.8 51.2 41.6 0-12.8 0-28.8 0-41.6s0-28.8 0-41.6zM233.6 608c-32-22.4-60.8-44.8-86.4-67.2-19.2 16-35.2 35.2-51.2 54.4-25.6 28.8-41.6 57.6-48 80-6.4 12.8-9.6 28.8-3.2 38.4 9.6 16 35.2 22.4 73.6 22.4 35.2 0 80-6.4 131.2-22.4-9.6-32-12.8-70.4-16-105.6v0zM515.2 636.8c-12.8 6.4-22.4 12.8-35.2 22.4-12.8 6.4-22.4 12.8-35.2 19.2 19.2 9.6 41.6 16 60.8 25.6 6.4-22.4 9.6-44.8 9.6-67.2v0zM316.8 812.8c12.8 35.2 28.8 64 44.8 83.2 9.6 9.6 22.4 22.4 35.2 22.4s25.6-12.8 35.2-22.4c16-19.2 32-48 44.8-83.2 9.6-22.4 16-44.8 22.4-70.4-32-12.8-67.2-25.6-102.4-41.6-35.2 16-67.2 28.8-102.4 41.6 9.6 25.6 16 51.2 22.4 70.4v0zM288 700.8c19.2-6.4 41.6-16 60.8-25.6-12.8-3.2-22.4-9.6-35.2-19.2-12.8-6.4-25.6-12.8-35.2-19.2 3.2 22.4 6.4 44.8 9.6 64v0zM278.4 387.2c12.8-6.4 22.4-12.8 35.2-22.4 12.8-6.4 22.4-12.8 35.2-19.2-19.2-9.6-41.6-16-60.8-25.6-3.2 22.4-6.4 44.8-9.6 67.2v0zM476.8 208c-12.8-35.2-28.8-64-44.8-83.2-9.6-9.6-22.4-22.4-35.2-22.4s-25.6 12.8-35.2 22.4c-16 19.2-32 48-44.8 83.2-9.6 22.4-16 44.8-22.4 70.4 32 12.8 67.2 25.6 102.4 41.6 35.2-16 67.2-28.8 102.4-41.6-6.4-22.4-12.8-48-22.4-70.4zM505.6 323.2c-19.2 6.4-41.6 16-60.8 25.6 12.8 6.4 22.4 12.8 35.2 19.2s22.4 12.8 35.2 22.4c0-25.6-3.2-48-9.6-67.2v0zM521.6 441.6c-19.2-12.8-38.4-25.6-60.8-38.4s-41.6-22.4-64-35.2c-22.4 9.6-41.6 22.4-64 35.2s-41.6 25.6-60.8 38.4c0 22.4-3.2 48-3.2 70.4s0 48 3.2 70.4c19.2 12.8 38.4 25.6 60.8 38.4s41.6 22.4 64 35.2c22.4-9.6 41.6-22.4 64-35.2s41.6-25.6 60.8-38.4c0-22.4 3.2-48 3.2-70.4s-3.2-48-3.2-70.4z" />
<glyph unicode="&#xe990;" glyph-name="graph" d="M582.4 531.2l96 131.2c-9.6 9.6-12.8 25.6-12.8 38.4 0 35.2 28.8 67.2 67.2 67.2s67.2-28.8 67.2-67.2-28.8-67.2-67.2-67.2c-3.2 0-6.4 0-9.6 0l-99.2-134.4c12.8-16 19.2-35.2 19.2-54.4 0-28.8-12.8-54.4-35.2-70.4l64-115.2c0 0 3.2 0 3.2 0 38.4 0 67.2-28.8 67.2-67.2 0-35.2-28.8-67.2-67.2-67.2s-67.2 28.8-67.2 67.2c0 16 6.4 32 19.2 44.8l-64 118.4c0 0-3.2 0-3.2 0-44.8 0-83.2 32-89.6 76.8l-150.4 22.4c-12.8-16-32-25.6-51.2-25.6-38.4 0-67.2 28.8-67.2 67.2s28.8 67.2 67.2 67.2c35.2 0 64-25.6 67.2-57.6l144-22.4c12.8 28.8 44.8 51.2 80 51.2 3.2 0 12.8 0 22.4-3.2v0z" />
<glyph unicode="&#xe991;" glyph-name="graph-solid" d="M579.2 528c-9.6 3.2-19.2 6.4-28.8 6.4-35.2 0-67.2-22.4-80-51.2l-144 22.4c-3.2 32-32 60.8-67.2 60.8-38.4 0-67.2-28.8-67.2-67.2s28.8-67.2 67.2-67.2c22.4 0 41.6 9.6 51.2 25.6l150.4-22.4c6.4-44.8 44.8-76.8 89.6-76.8 0 0 3.2 0 3.2 0l64-118.4c-9.6-12.8-19.2-28.8-19.2-44.8 0-38.4 28.8-67.2 67.2-67.2s67.2 28.8 67.2 67.2-25.6 60.8-64 60.8c0 0-3.2 0-3.2 0l-64 115.2c22.4 16 35.2 41.6 35.2 73.6 0 19.2-6.4 38.4-19.2 54.4l99.2 137.6c3.2 0 6.4 0 9.6 0 38.4 0 67.2 28.8 67.2 67.2 3.2 35.2-25.6 64-64 64s-67.2-28.8-67.2-67.2c0-16 6.4-28.8 12.8-38.4l-96-134.4zM256 960h512c140.8 0 256-115.2 256-256v-512c0-140.8-115.2-256-256-256h-512c-140.8 0-256 115.2-256 256v512c0 140.8 115.2 256 256 256z" />
</font>
</defs>
</svg>
